


<svg width="265.5394mm" height="241.17403mm" viewBox="0 0 265.5394 241.17403" version="1.1" id="svg3510" xmlns="http://www.w3.org/2000/svg">
  <defs id="defs3507">
    <clipPath clipPathUnits="userSpaceOnUse" id="clipPath26">
      <path d="M 0,858.897 H 612.288 V 0 H 0 Z" id="path24"></path>
    </clipPath>
  </defs>
  <g id="layer1" transform="translate(33.040003,-19.299302)">
    <g id="g18" transform="matrix(0.35277776,0,0,-0.35277776,-33.04,299.38115)">
      <g id="g20" transform="matrix(2.5937458,0,0,2.5937458,-417.91782,-627.73905)">
        <g id="g22" clip-path="url(#clipPath26)">
          <g id="g28" transform="translate(319.5352,547.0225)">
            <path id="path30" style="fill:#ffffff;fill-opacity:1;fill-rule:nonzero;stroke:none;stroke-width:3.45833" transform="matrix(0.2891571,0,0,-0.2891571,-158.41,26.139323)" d="m 547.83398,90.398438 c -87.04264,0 -171.55853,24.803972 -244.4082,71.726562 -70.77813,45.58422 -127.30795,109.71783 -163.55469,185.48633 -37.70614,-21.62147 -76.179275,-46.32746 -115.669918,-74.25 L 0,256.25 l 24.878906,138.21875 5.138672,2.7793 c 26.954206,14.54918 53.172238,27.42557 78.404302,38.82422 l -0.57813,2.46875 c -7.954154,33.83281 -11.986328,68.77 -11.986328,103.83398 0,249.2313 202.755838,451.98828 451.976558,451.98828 249.23476,0 452,-202.75698 452,-451.98828 0,-93.1916 -28.36513,-179.87638 -76.89648,-251.90234 -5.88526,-5.34013 -12.21754,-9.79437 -13.18555,-18.56641 C 827.23898,161.78641 695.71936,90.398431 547.83398,90.398438 Z"></path>
          </g>
          <g id="g32" transform="translate(318.6797,378.9492)">
            <path d="m 0,0 -9.91,-9.979 -2.517,-0.792 17.855,-30.191 8.824,2.399 9.161,-0.946 0.281,1.052 -9.629,2.547 L 8.21,-36.55 -4.5,-14.378 21.221,-0.045 C 13.907,-1.169 0.684,-0.065 0,0" style="fill:#231f20;fill-opacity:1;fill-rule:nonzero;stroke:none" id="path34"></path>
          </g>
          <g id="g36" transform="translate(284.3105,368.1025)">
            <path d="m 0,0 -2.523,-0.787 17.86,-29.328 8.826,2.399 9.17,-0.948 0.271,1.052 -9.63,2.549 -5.854,-0.64 -12.709,22.174 26.265,14.82 c -6.095,0.702 -11.351,1.849 -16.78,3.547 z" style="fill:#231f20;fill-opacity:1;fill-rule:nonzero;stroke:none" id="path38"></path>
          </g>
          <g id="g40" transform="translate(352.6426,385.0332)">
            <path d="m 0,0 c -0.104,0 -0.22,-0.006 -0.348,-0.016 -1.815,-0.17 -4.261,-0.28 -7.059,-0.28 -13.241,0 -34.43,2.515 -34.583,13.573 -0.111,7.754 16.965,16.795 23.421,19.347 1.396,0.55 1.444,0.974 0.472,0.974 -0.303,0 -0.703,-0.04 -1.191,-0.13 -25.547,-4.73 -45.54,-5.656 -57.275,-5.656 -7.544,0 -11.671,0.382 -11.671,0.382 0,0 9.06,-19.219 37.375,-27.63 2.965,-0.88 6.142,-1.641 9.542,-2.252 3.296,-0.59 6.8,-1.038 10.526,-1.305 2.809,-0.205 5.503,-0.303 8.097,-0.303 8.485,0 15.9,1.003 22.769,2.42 C 0.813,-0.725 1.179,0 0,0" style="fill:#231f20;fill-opacity:1;fill-rule:nonzero;stroke:none" id="path42"></path>
          </g>
          <g id="g44" transform="translate(406.0928,442.6367)">
            <path id="path46" style="fill:#231f20;fill-opacity:1;fill-rule:nonzero;stroke:none;stroke-width:3.45833" transform="matrix(0.2891571,0,0,-0.2891571,-244.9676,130.52512)" d="M 17.193359,283.26562 35.78125,386.56445 c 208.65474,112.6654 374.93164,124.00586 374.93164,124.00586 l 1.94727,2.57422 C 364.8799,516.8484 241.57968,494.71801 166.88672,458.50586 l 16.93945,54.46484 c 194.45139,59.91899 362.68476,15.8675 402.83594,11.0293 47.6523,-5.74774 142.4358,-21.48741 162.53906,30.90625 17.41614,45.41822 -53.48789,82.71269 -74.94336,92.98047 -3.27849,1.577 -1.07897,3.03575 1.08594,2.48242 136.14744,-34.11986 208.90039,-163.95508 208.90039,-163.95508 8.49019,-9.29598 53.16873,-21.59753 62.81055,-24.16015 1.17237,-0.31817 2.46289,-0.35157 2.46289,-0.35157 0.0173,-0.415 -2.07616,-0.97338 -2.83008,-1.37109 C 923.42333,448.0709 881.49805,446.91406 881.49805,446.91406 840.17449,414.21903 787.48382,433.17039 774.43555,437.23047 548.44421,507.30656 323.02711,499.51831 17.193359,283.26562 Z M 809.67578,448.50391 h 42.18555 l -4.6836,2.89453 c 0,0 -4.32621,14.23534 -11.51953,9.88476 -5.2359,-3.15745 -10.16082,-8.87504 -20.48047,-11.04687 -2.64562,-0.57408 -4.63613,-1.20318 -5.35546,-1.32422 -1.93321,-0.31125 -0.14649,-0.4082 -0.14649,-0.4082 z"></path>
          </g>
          <g id="g48" transform="translate(311.0254,521.9502)">
            <path d="M 0,0 1.621,0.115 0.639,2.376 Z" style="fill:#231f20;fill-opacity:1;fill-rule:nonzero;stroke:none" id="path50"></path>
          </g>
          <g id="g52" transform="translate(297.1416,516.6421)">
            <path d="M 0,0 C -0.07,0.29 -0.189,0.557 -0.358,0.794 -0.524,1.031 -0.746,1.237 -1.011,1.41 -1.241,1.559 -1.558,1.647 -1.947,1.67 -2.374,1.692 -2.896,1.639 -3.498,1.508 l -0.01,-0.003 1.041,-4.319 c 0.036,0.004 0.071,0.007 0.107,0.009 0.155,0.018 0.301,0.034 0.437,0.055 0.063,0.013 0.124,0.02 0.18,0.022 0,0 0.005,0 0.011,0.002 0.067,0.016 0.136,0.025 0.2,0.026 0.302,0.1 0.565,0.213 0.797,0.332 0.219,0.118 0.42,0.261 0.594,0.428 0.156,0.149 0.251,0.344 0.291,0.594 0.048,0.284 0.022,0.638 -0.08,1.052 z" style="fill:#231f20;fill-opacity:1;fill-rule:nonzero;stroke:none" id="path54"></path>
          </g>
          <g id="g56" transform="translate(294.2666,521.1533)">
            <path d="M 0,0 0.023,0.021 C 0.172,0.145 0.264,0.287 0.304,0.453 0.349,0.64 0.345,0.855 0.288,1.089 L 0.248,1.25 0.211,1.33 0.186,1.426 c -0.163,0.386 -0.347,0.683 -0.545,0.887 -0.17,0.171 -0.336,0.26 -0.509,0.273 L -0.88,2.587 C -1.065,2.606 -1.286,2.601 -1.531,2.575 -1.667,2.559 -1.812,2.54 -1.965,2.516 l 0.774,-3.209 c 0.208,0.076 0.406,0.167 0.599,0.267 0.221,0.117 0.42,0.26 0.592,0.426" style="fill:#231f20;fill-opacity:1;fill-rule:nonzero;stroke:none" id="path58"></path>
          </g>
          <g id="g60" transform="translate(251.3604,494.0073)">
            <path id="path62" style="fill:#231f20;fill-opacity:1;fill-rule:nonzero;stroke:none;stroke-width:3.45833" transform="matrix(0.2891571,0,0,-0.2891571,-90.235196,79.154523)" d="m 292.00781,260.9707 c -1.06786,0.008 -2.09569,0.13575 -3.06445,0.38086 -1.68766,0.43229 -3.31562,1.25219 -4.84766,2.44532 -0.996,1.19312 -1.7577,2.59577 -2.26953,4.17968 -0.53604,1.65308 -0.79809,3.50666 -0.77734,5.48828 -0.0208,1.98163 0.44967,3.95637 1.37305,5.89649 0.95795,2.01274 2.41701,4.06355 4.33984,6.10742 l 0.76758,0.81641 c 1.94012,2.04733 3.99153,3.61395 6.09765,4.64453 2.09921,1.0202 4.35761,1.61227 6.72657,1.74023 2.12687,0.11413 4.12162,-0.0839 5.875,-0.5957 1.68766,-0.48763 3.22022,-1.27273 4.55859,-2.33789 1.22079,-1.35221 2.08794,-2.83812 2.58594,-4.40821 0.498,-1.61503 0.6369,-3.42136 0.41211,-5.34765 -0.26284,-2.20987 -0.85116,-4.31199 -1.72266,-6.23828 -0.87496,-1.91246 -2.09174,-3.70451 -3.64453,-5.34375 L 307.56641,267.5 c -0.13834,-0.0865 -0.26479,-0.18259 -0.37891,-0.31055 l -0.13867,-0.14648 c -0.13833,-0.083 -0.2765,-0.19386 -0.39063,-0.31836 l -0.0664,-0.0625 c -1.69458,-1.42829 -3.5585,-2.61675 -5.53321,-3.5332 -1.99199,-0.92338 -4.1736,-1.58744 -6.49414,-1.96094 -0.86998,-0.13769 -1.72608,-0.2036 -2.55664,-0.19727 z"></path>
          </g>
          <g id="g64" transform="translate(266.6084,507.252)">
            <path d="M 0,0 -0.189,0.303 C -0.227,0.333 -0.256,0.369 -0.28,0.408 L -0.313,0.459 C -0.349,0.492 -0.381,0.53 -0.404,0.57 L -0.421,0.595 C -0.824,1.094 -1.287,1.533 -1.797,1.902 -2.311,2.275 -2.896,2.583 -3.532,2.819 -4.085,3.018 -4.624,3.106 -5.137,3.075 -5.639,3.047 -6.147,2.904 -6.647,2.652 -6.998,2.368 -7.292,2.01 -7.523,1.588 -7.767,1.149 -7.945,0.64 -8.05,0.074 c -0.112,-0.56 -0.09,-1.147 0.066,-1.748 0.16,-0.624 0.461,-1.288 0.896,-1.973 l 0.173,-0.272 c 0.437,-0.692 0.933,-1.25 1.474,-1.659 0.536,-0.406 1.148,-0.698 1.812,-0.865 0.456,-0.116 0.9,-0.174 1.314,-0.174 0.127,0 0.258,0.008 0.384,0.018 0.507,0.045 0.984,0.184 1.424,0.413 0.421,0.316 0.75,0.689 0.975,1.108 0.233,0.432 0.374,0.934 0.416,1.495 0.044,0.642 -0.002,1.271 -0.146,1.864 C 0.597,-1.127 0.349,-0.549 0,0" style="fill:#231f20;fill-opacity:1;fill-rule:nonzero;stroke:none" id="path66"></path>
          </g>
          <g id="g68" transform="translate(412.9443,475.5039)">
            <path d="m 0,0 c -0.043,0.181 -0.117,0.388 -0.222,0.613 -0.057,0.123 -0.121,0.256 -0.191,0.391 l -2.795,-1.76 c 0.138,-0.171 0.288,-0.331 0.442,-0.479 0.184,-0.172 0.382,-0.317 0.598,-0.427 l 0.023,-0.015 c 0.166,-0.1 0.33,-0.14 0.499,-0.128 0.193,0.018 0.396,0.09 0.599,0.22 l 0.14,0.088 0.063,0.062 0.085,0.053 c 0.313,0.278 0.535,0.549 0.665,0.802 0.109,0.215 0.141,0.4 0.096,0.567 z" style="fill:#231f20;fill-opacity:1;fill-rule:nonzero;stroke:none" id="path70"></path>
          </g>
          <g id="g72" transform="translate(407.7285,473.4707)">
            <path d="m 0,0 -0.005,0.01 -3.761,-2.365 c 0.015,-0.033 0.031,-0.066 0.042,-0.099 0.067,-0.14 0.13,-0.272 0.195,-0.398 0.028,-0.052 0.056,-0.107 0.076,-0.162 0,-0.003 0.004,-0.005 0.005,-0.009 0.039,-0.059 0.067,-0.122 0.091,-0.181 0.189,-0.251 0.379,-0.469 0.568,-0.649 0.18,-0.173 0.38,-0.316 0.596,-0.428 0.192,-0.1 0.405,-0.128 0.653,-0.088 0.285,0.048 0.613,0.188 0.973,0.413 l 0.256,0.163 c 0.253,0.158 0.469,0.358 0.639,0.594 0.169,0.232 0.294,0.508 0.373,0.813 0.068,0.268 0.049,0.594 -0.052,0.971 C 0.533,-1.001 0.315,-0.525 0,0" style="fill:#231f20;fill-opacity:1;fill-rule:nonzero;stroke:none" id="path74"></path>
          </g>
          <g id="g76" transform="translate(396.7012,343.7705)">
            <path d="M 0,0 1.948,2.145 -2.101,3.856 Z" style="fill:#231f20;fill-opacity:1;fill-rule:nonzero;stroke:none" id="path78"></path>
          </g>
          <g id="g80" transform="translate(266.1826,332.874)">
            <path d="m 0,0 c -0.345,0.677 -0.852,1.288 -1.505,1.818 l -0.008,0.006 c -0.602,0.304 -1.276,0.495 -1.997,0.559 -0.741,0.066 -1.538,0 -2.364,-0.199 -0.83,-0.18 -1.614,-0.565 -2.341,-1.141 -0.744,-0.587 -1.457,-1.389 -2.115,-2.375 l -0.261,-0.386 c -0.666,-1.002 -1.122,-2.003 -1.348,-2.973 -0.23,-0.972 -0.257,-1.973 -0.087,-2.975 0.159,-0.901 0.428,-1.703 0.808,-2.389 0.371,-0.666 0.856,-1.236 1.438,-1.703 0.693,-0.389 1.406,-0.616 2.128,-0.67 0.73,-0.056 1.498,0.06 2.287,0.34 0.893,0.321 1.71,0.76 2.427,1.306 0.71,0.547 1.342,1.228 1.874,2.024 l 0.306,0.45 c 0.012,0.057 0.036,0.112 0.068,0.157 l 0.065,0.099 c 0.018,0.055 0.042,0.112 0.077,0.158 l 0.027,0.047 c 0.434,0.842 0.75,1.728 0.945,2.635 0.191,0.911 0.259,1.877 0.194,2.873 C 0.559,-1.466 0.351,-0.681 0,0" style="fill:#231f20;fill-opacity:1;fill-rule:nonzero;stroke:none" id="path82"></path>
          </g>
          <g id="g84" transform="translate(430.5674,379.3145)">
            <path id="path86" style="fill:#231f20;fill-opacity:1;fill-rule:nonzero;stroke:none;stroke-width:3.45833" transform="matrix(0.2891571,0,0,-0.2891571,-269.4422,193.84732)" d="m 547.83398,102.5332 c -175.24363,0 -326.56642,102.50526 -397.27539,250.83985 44.70926,25.04866 88.35991,45.69916 131.32618,62.10547 47.50358,-99.15026 148.86427,-167.79493 265.94921,-167.79493 117.32723,0 218.86445,68.91004 266.25391,168.375 3.31654,-0.23862 6.73288,-0.38671 10.25,-0.38671 23.48205,0 44.19763,6.39769 61.57227,19.01367 10.99056,0.61904 43.8541,3.47521 66.14648,15.72461 l 0.0664,0.041 c 3.64853,2.13379 8.7747,5.87892 10.54883,7.71875 1.60446,1.66 3.03817,3.5106 2.65429,5.82422 -0.42883,2.63525 -2.88361,3.89864 -5.24219,5.13672 -1.65308,0.85766 -8.17506,3.45444 -9.99414,4.05273 -2.32745,0.80234 -6.23659,2.10278 -11.16796,3.75586 -5.65783,1.89171 -12.69383,4.24222 -19.72461,6.625 -17.3366,5.87916 -23.3609,9.43779 -25.19727,10.75196 -1.83983,3.10212 -6.23662,10.307 -13.11523,20.0664 -8.07866,11.48857 -21.30557,28.89413 -38.97071,47.58985 -10.11215,153.40795 -138.14754,275.09961 -294.08008,275.09961 -162.26453,0 -294.32331,-131.82051 -294.69336,-294.01954 -24.79946,-4.81053 -49.2189,-10.90438 -72.9707,-18.21875 l -6.24219,-1.92968 -21.09961,-67.625 c -11.08374,-4.4647 -22.15063,-9.1262 -33.17578,-13.96094 -7.62561,32.44257 -11.66211,66.28661 -11.66211,101.05664 0,242.91639 196.94485,439.85352 439.84375,439.85352 242.96827,0 439.86915,-196.93713 439.86914,-439.85352 0,-242.91293 -196.90087,-439.8418 -439.86914,-439.8418 z m 20.5254,48.44532 16.02343,1.43164 6.1543,0.61523 -2.72461,2.48242 -0.0137,0.0723 -0.43555,0.40625 c -0.1245,0.11066 -0.26055,0.20712 -0.40234,0.2832 -0.0899,0.0795 -0.20318,0.15109 -0.32422,0.2168 -0.0622,0.0415 -0.1248,0.0806 -0.1836,0.11523 l -0.0137,0.01 c -0.0657,0.045 -0.19366,0.1555 -0.37695,0.40429 -0.2075,0.29396 -0.43235,0.60941 -0.66406,0.94141 -0.15909,0.31817 -0.30759,0.72002 -0.43555,1.19727 -0.15562,0.54641 -0.27763,1.22306 -0.35351,2.02539 l -3.43946,34.15039 c 0.41154,0.11758 0.80452,0.21432 1.19531,0.30078 0.80579,0.18329 1.57051,0.35984 2.26563,0.5293 0.45304,0.0865 0.90198,0.17062 1.35156,0.23632 0.46342,0.0761 0.90682,0.15529 1.31836,0.23829 0.43229,0 0.84057,0.001 1.23828,-0.004 0.39425,-0.007 0.7913,-0.0351 1.18555,-0.0801 l 0.10351,-0.01 c 0.5395,-0.0311 1.10455,-0.11318 1.68555,-0.24805 0.59138,-0.14525 1.20986,-0.33006 1.80469,-0.54102 l 0.0684,-0.0195 c 0.30433,-0.0968 0.61005,-0.21188 0.88672,-0.33984 0.32854,-0.15908 0.64924,-0.30682 0.95703,-0.45899 0.35966,-0.20058 0.70271,-0.39752 1.03125,-0.60156 0.332,-0.19021 0.67382,-0.41136 1.05078,-0.66015 l 0.43945,-0.30274 5.50977,0.40234 -6.15039,12.51563 -31.61914,-3.18555 0.21484,-2.12304 -0.68555,-0.74805 c 0.0346,-0.0277 0.0704,-0.0509 0.10157,-0.082 -0.10029,0.0484 -0.20501,0.11382 -0.29493,0.19336 0.12105,-0.11067 0.25649,-0.19675 0.41211,-0.28321 0.0657,-0.0415 0.1218,-0.0835 0.1875,-0.125 l 0.15821,-0.13867 0.13867,-0.0625 0.0937,-0.0918 c 0.12104,-0.10009 0.24582,-0.19869 0.39453,-0.28515 0.29396,-0.31817 0.55902,-0.63541 0.77344,-0.95703 0.20058,-0.28704 0.34563,-0.5773 0.43555,-0.85742 0.12775,-0.42538 0.24195,-0.83789 0.3457,-1.21485 0.083,-0.332 0.14856,-0.65945 0.17969,-0.9707 l 3.65234,-36.23633 c 0.0484,-0.57062 0.0694,-1.09668 0.0625,-1.55664 -0.0138,-0.5395 -0.0475,-0.84047 -0.082,-0.99609 -0.045,-0.21788 -0.1045,-0.43313 -0.1875,-0.64063 -0.0311,-0.0899 -0.0724,-0.17196 -0.14844,-0.24805 l -0.10156,-0.12109 c -0.0415,-0.0657 -0.10316,-0.13396 -0.17578,-0.20312 -0.1245,-0.1418 -0.27256,-0.32164 -0.43164,-0.54297 -0.13834,-0.18675 -0.28416,-0.39887 -0.41211,-0.61328 -0.13142,-0.21096 -0.26914,-0.44152 -0.38672,-0.6836 z m -42.36133,0.3496 19.30859,41.9668 c 0.27667,0.58792 0.55223,1.08533 0.80469,1.47266 0.26975,0.39771 0.5375,0.77046 0.79687,1.10937 0.28704,0.31471 0.57413,0.64021 0.875,0.96875 0.23517,0.26284 0.47667,0.49412 0.71875,0.70508 0.21788,0.13142 0.40432,0.31098 0.57032,0.52539 0.0277,0.0277 0.0458,0.0418 0.0527,0.0625 l 0.37305,0.34961 c 0.13487,0.0968 0.25981,0.20407 0.38086,0.33203 l 0.0508,0.0234 0.19726,0.19141 c 0.038,0.038 0.0694,0.0652 0.10743,0.0859 0.0173,0.0138 0.0281,0.0165 0.0352,0.0234 l -0.54687,2.95508 -16.85157,1.20703 -0.78515,-2.93945 c 0.32508,-0.16946 0.6002,-0.34646 0.80078,-0.53321 0.17637,-0.17291 0.3156,-0.33566 0.38476,-0.48437 0.10375,-0.19367 0.172,-0.38027 0.20313,-0.55664 0.038,-0.15908 0.0564,-0.30442 0.0391,-0.45313 -0.0104,-0.13487 -0.0251,-0.27637 -0.0527,-0.41796 -0.007,-0.0346 -0.0266,-0.0829 -0.0508,-0.13477 -0.0968,-0.17638 -0.17994,-0.37799 -0.24219,-0.58203 -0.0173,-0.0588 -0.0389,-0.12375 -0.0527,-0.18946 -0.0415,-0.10009 -0.0856,-0.20769 -0.11328,-0.31835 -0.0484,-0.0899 -0.11414,-0.19118 -0.16601,-0.29493 l -0.008,-0.0195 c -0.0519,-0.0865 -0.0957,-0.17615 -0.14062,-0.26953 -0.0795,-0.11758 -0.14222,-0.26714 -0.21484,-0.42969 -0.0623,-0.13141 -0.1104,-0.26242 -0.14844,-0.38671 l -4.56641,-10.44532 -11.41797,0.82032 -2.99218,11.95898 c -0.0277,0.21787 -0.0554,0.42832 -0.0762,0.62891 -0.0277,0.2732 -0.0757,0.50494 -0.11718,0.70898 l 0.0234,0.37305 c 0.0104,0.21095 0.0356,0.39576 0.084,0.54101 0.0277,0.12796 0.0664,0.22665 0.11133,0.30274 0.045,0.0865 0.1021,0.1694 0.18164,0.25586 0.10029,0.11066 0.19748,0.20427 0.30469,0.27343 l 0.0977,0.0703 0.082,0.0781 c 0.11759,0.1245 0.2529,0.26385 0.38086,0.41602 0.12104,0.0623 0.22092,0.13921 0.32813,0.21875 l 0.16211,0.0723 0.20117,0.19336 c -0.045,-0.045 -0.079,-0.0668 -0.0859,-0.0703 -0.0242,-0.0208 -0.0652,-0.0446 -0.13086,-0.0723 -0.11758,-0.045 -0.30255,-0.0996 -0.52734,-0.0996 v 1.32032 l 0.13281,1.77148 -0.0898,-1.09375 0.0605,0.86328 0.0117,0.23438 -15.83594,1.13086 -0.17578,-2.32032 -0.66015,-0.51367 c 0.0277,-0.0311 0.0617,-0.065 0.0859,-0.0996 -0.0657,0.038 -0.12887,0.0833 -0.17382,0.13867 0.0726,-0.0761 0.15662,-0.15153 0.25,-0.2207 0.0692,-0.0934 0.16114,-0.18413 0.24414,-0.26367 0.10375,-0.10375 0.22287,-0.19674 0.33008,-0.2832 0.61884,-0.60521 1.14103,-1.19606 1.5664,-1.75977 0.42192,-0.57408 0.76345,-1.15203 1.0332,-1.72266 0.28013,-0.60154 0.52179,-1.19711 0.70508,-1.7539 0.14871,-0.47033 0.27442,-0.90173 0.35742,-1.28906 l -0.0137,-0.20118 10.25,-37.21484 c 0.0138,-0.15908 0.0314,-0.32183 0.0625,-0.48437 l 0.0176,-0.0996 c 0.0173,-0.083 0.0345,-0.167 0.0449,-0.25 v -0.20313 c -0.0173,-0.25591 -0.0621,-0.48077 -0.13476,-0.66406 -0.007,-0.0346 -0.0137,-0.0488 -0.0137,-0.0488 l -0.13868,-0.10352 -0.10156,-0.11523 c -0.1245,-0.15562 -0.27284,-0.30458 -0.44922,-0.43945 -0.21441,-0.17292 -0.44542,-0.33372 -0.6875,-0.48242 l -3.87109,-2.4668 15.05859,-1.28906 z m 101.74023,7.30665 15.61133,3.86328 5.98242,1.55664 -3.08008,2.02929 -0.0176,0.0762 -0.50586,0.33203 c -0.13834,0.0899 -0.28314,0.16146 -0.43164,0.21679 -0.1003,0.0623 -0.22166,0.12212 -0.34961,0.16016 -0.0761,0.0415 -0.13876,0.0656 -0.21485,0.0898 l -0.006,0.006 c -0.0622,0.0346 -0.20445,0.11896 -0.42578,0.34375 -0.25937,0.25938 -0.52546,0.53222 -0.8125,0.82618 -0.20058,0.2905 -0.40082,0.66654 -0.61523,1.12304 -0.22134,0.51529 -0.45282,1.1663 -0.64649,1.9375 l -8.63281,33.23438 c 0.39079,0.16946 0.75781,0.32785 1.13477,0.47656 0.76774,0.30087 1.4966,0.59638 2.16406,0.87305 0.41846,0.15562 0.86112,0.30307 1.29687,0.4414 0.44267,0.13488 0.85579,0.28444 1.26367,0.42969 0.42538,0.0657 0.83338,0.12781 1.22071,0.17969 0.39079,0.0588 0.78784,0.097 1.18555,0.10742 l 0.0996,0.006 c 0.53605,0.0519 1.10679,0.0557 1.70508,0.008 0.61904,-0.045 1.25507,-0.13587 1.86719,-0.25 l 0.0762,-0.0156 c 0.31471,-0.038 0.62686,-0.10495 0.92774,-0.19141 0.34583,-0.10375 0.68859,-0.2068 1.01367,-0.31055 0.38387,-0.14525 0.75752,-0.28684 1.11719,-0.43554 0.34583,-0.13488 0.71781,-0.30243 1.13281,-0.4961 l 0.48828,-0.22461 5.375,1.23828 -7.99219,11.42969 -30.76562,-7.98828 0.53906,-2.06836 -0.55274,-0.84375 c 0.0311,-0.0242 0.0649,-0.0446 0.11329,-0.0723 -0.10721,0.0346 -0.20981,0.0803 -0.30664,0.14257 0.13141,-0.083 0.27166,-0.15019 0.42382,-0.20898 0.0657,-0.0311 0.14222,-0.068 0.21485,-0.0957 l 0.17773,-0.1211 0.13672,-0.0351 0.12109,-0.0723 c 0.12105,-0.0865 0.2643,-0.1589 0.41993,-0.22461 0.34583,-0.26629 0.65212,-0.54364 0.92187,-0.82031 0.23171,-0.25938 0.42523,-0.52232 0.55664,-0.78516 0.18675,-0.3977 0.3633,-0.77795 0.5293,-1.14453 0.13487,-0.31471 0.24333,-0.62926 0.3125,-0.93359 l 0.45508,-1.72852 8.71289,-33.52539 c 0.13833,-0.54987 0.23898,-1.06543 0.30469,-1.52539 0.0622,-0.5395 0.0709,-0.84092 0.0605,-1 -0.0104,-0.21787 -0.0308,-0.44484 -0.0723,-0.65234 -0.0138,-0.0968 -0.061,-0.18999 -0.10938,-0.26953 l -0.084,-0.13477 c -0.0415,-0.0795 -0.0788,-0.16069 -0.14453,-0.24023 -0.1003,-0.15909 -0.21189,-0.35468 -0.33985,-0.58985 -0.11758,-0.22133 -0.22844,-0.45144 -0.31836,-0.67969 -0.10029,-0.23496 -0.20366,-0.47996 -0.2832,-0.73242 z m -165.67773,2.6875 c 1.98162,0.14179 3.83638,0.61535 5.51367,1.40039 l 0.0312,0.0137 c 1.71187,0.85766 3.13927,1.99256 4.25976,3.38281 1.12396,1.38679 1.92677,3.06321 2.38672,4.96875 0.27667,1.15162 0.39339,2.31998 0.32422,3.47852 -0.0657,1.17583 -0.32385,2.34536 -0.77344,3.5039 -0.3977,1.1205 -0.95453,2.13436 -1.6289,3.00586 0.95795,0.24554 1.91073,0.55273 2.86523,0.92969 1.21733,0.48762 2.40384,1.12031 3.53125,1.89844 1.27958,0.83691 2.35869,1.97901 3.21289,3.40039 0.80579,1.35912 1.45574,3.04332 1.94336,5.02148 l 0.008,0.0684 c 0.43554,2.19258 0.54266,4.20484 0.35937,5.98242 -0.21096,1.84329 -0.77063,3.48671 -1.63867,4.87696 -0.77121,1.33491 -1.66823,2.54603 -2.65039,3.58007 -1.00638,1.05479 -2.11938,1.96065 -3.3125,2.69727 l -0.0625,0.0332 c -0.664,0.36659 -1.32115,0.72045 -1.96094,1.03516 -0.63979,0.31125 -1.28241,0.60126 -1.89453,0.85351 l -0.11328,0.0449 c -0.67092,0.21787 -1.31069,0.39531 -1.88477,0.53711 l -20.57031,4.95507 -1.4043,-2.66015 c 0.0484,-0.038 0.10393,-0.0881 0.15235,-0.15039 0.0588,-0.0553 0.11084,-0.10828 0.15234,-0.16016 0.045,-0.0657 0.0889,-0.12765 0.12695,-0.19336 l 0.0273,-0.13476 0.16015,-0.25196 c 0.14871,-0.22825 0.25611,-0.46389 0.31836,-0.71289 0.0795,-0.28012 0.11267,-0.52956 0.12305,-0.75781 -0.0104,-0.35621 -0.0369,-0.77816 -0.0957,-1.25195 -0.0519,-0.48763 -0.15252,-1.03977 -0.30469,-1.64844 l -8.57422,-35.52539 c -0.083,-0.15563 -0.14856,-0.32183 -0.17969,-0.48438 l -0.0957,-0.39062 c -0.0761,-0.14525 -0.14991,-0.3113 -0.19141,-0.49805 l -0.0332,-0.14453 c -0.0692,-0.166 -0.14132,-0.31044 -0.20703,-0.44531 -0.0726,-0.14871 -0.1598,-0.31911 -0.23242,-0.50586 -0.11413,-0.14179 -0.22918,-0.29404 -0.33985,-0.45313 -0.1245,-0.17291 -0.24073,-0.34287 -0.36523,-0.50195 -0.16946,-0.21442 -0.36009,-0.39666 -0.5918,-0.54883 -0.19366,-0.13487 -0.40895,-0.22937 -0.65429,-0.28125 l -0.0332,-3.02539 15.40625,-3.86914 2.6875,-0.64453 c 2.19604,-0.42192 4.2803,-0.55915 6.20313,-0.42773 z m -44.09961,9.79687 1.49414,12.86914 -4.5586,1.86328 -0.72656,-0.77148 c -0.0588,-0.0588 -0.1997,-0.17523 -0.53515,-0.30664 -0.31125,-0.12796 -0.69524,-0.2109 -1.16211,-0.25586 h -0.0977 c -0.50492,0 -0.99496,0.0328 -1.46875,0.10547 -0.48762,0.0726 -0.98922,0.21588 -1.49414,0.41992 l -0.0586,0.0195 -1.88672,0.68555 14.07031,34.34179 c 0.21096,0.51184 0.4184,0.90278 0.63281,1.17578 0.15217,0.19713 0.32766,0.34112 0.53516,0.44141 l 0.10351,0.0586 c 0.29742,0.166 0.61332,0.31602 0.94532,0.4336 0.3562,0.11758 0.69416,0.23084 1.00195,0.32422 l 0.45703,0.0547 0.58789,0.1211 3.39258,1.64648 -5.69336,2.33399 -12.59375,5.1582 -1.64063,-2.58008 c 0.27667,-0.249 0.47752,-0.50983 0.60547,-0.79687 0.15909,-0.32854 0.26934,-0.67639 0.32813,-1.04297 0.0484,-0.36658 0.0484,-0.74503 0,-1.12891 -0.0588,-0.39771 -0.17865,-0.81876 -0.35156,-1.24414 l -0.0527,-0.14258 -14.0918,-34.40625 -0.84765,0.34571 c -0.78504,0.42191 -1.51418,0.85453 -2.18164,1.26953 -0.63979,0.40808 -1.24175,0.84428 -1.78125,1.30078 -0.49108,0.48762 -0.94857,0.99883 -1.38086,1.51758 -0.38388,0.46341 -0.70205,0.94853 -0.91992,1.42578 l -0.27344,0.5625 -4.89648,1.85742 -2.2754,-12.58789 4.375,-1.79492 0.67383,0.42187 0.0137,0.01 c 0.0346,-0.0104 0.0805,-0.0207 0.12891,-0.0449 l 0.19922,-0.0801 0.21484,-0.0234 c 0.0242,-0.003 0.0669,-0.0134 0.14649,-0.041 l 0.58984,-0.24219 22.88867,-9.53906 2.04688,-0.83204 c 0.0795,-0.083 0.16533,-0.17465 0.26562,-0.27148 0.17638,-0.17983 0.36627,-0.34739 0.57032,-0.49609 l 0.14843,-0.1211 z m 313.65625,27.58984 c 0.82227,-0.0136 1.65966,0.0317 2.50781,0.13282 3.29579,0.39425 6.85395,1.67346 10.58203,3.79687 l 2.49024,1.33789 c 0.50491,0.34238 1.0197,0.68167 1.54882,1.01367 0.57754,0.36313 1.16884,0.77052 1.76368,1.23047 0.60866,0.40463 1.22397,0.84038 1.82226,1.29688 0.59483,0.4565 1.17246,0.90259 1.75,1.3418 0.30779,0.24534 0.62946,0.50519 0.93359,0.77148 0.32163,0.27667 0.63244,0.56106 0.91602,0.85156 0.13142,0.13488 0.26267,0.26312 0.39063,0.39453 0.0346,0.0346 0.0661,0.0574 0.0937,0.0781 l 0.1914,0.10742 0.1582,0.15234 c 0.11759,0.13142 0.25006,0.25335 0.3711,0.38477 0.13833,0.13833 0.26853,0.26462 0.39648,0.39258 l 0.84375,0.83789 -5.68554,9.94531 -4.03907,-2.30664 -0.20703,-0.36914 c -0.74354,-1.30725 -1.49685,-2.50506 -2.22656,-3.55273 -0.68821,-0.98909 -1.44677,-1.84964 -2.24219,-2.5586 -0.62595,-0.57408 -1.21709,-1.07898 -1.77734,-1.50781 -0.55333,-0.415 -1.11044,-0.81612 -1.64649,-1.17578 -1.6842,-0.79888 -3.34353,-1.20972 -4.91015,-1.23047 h -0.11719 c -1.54241,0 -3.06553,0.3627 -4.52148,1.08203 -1.7845,0.87842 -3.37375,1.99984 -4.73633,3.31055 -1.37296,1.33145 -2.59833,2.9135 -3.62891,4.71875 l -0.45703,0.81054 -0.0156,0.13868 -0.14258,0.26562 c -1.05479,2.00929 -1.78039,4.11125 -2.16406,6.25195 -0.38734,2.16146 -0.4772,4.43036 -0.25586,6.75782 0.18675,1.99199 0.7734,3.80085 1.73828,5.38476 0.88533,1.46979 2.11249,2.75694 3.64453,3.83594 h 0.125 l 0.38476,0.24609 c 0.67784,0.43921 1.3524,0.81257 1.99219,1.09961 0.6225,0.28359 1.24082,0.49058 1.81836,0.62891 l 0.10742,0.0273 c 0.58792,0.18329 1.19916,0.32443 1.83203,0.43164 0.63979,0.10375 1.30834,0.17371 2,0.20117 l 0.0449,0.004 1.04492,0.0801 c 0.28358,0.0173 0.57368,0.0161 0.87109,0.01 l 0.14063,-0.01 0.13281,0.0156 c 0.27666,0.0311 0.55927,0.0488 0.83594,0.0488 h 0.10742 c 0.41846,-0.0104 0.82613,-0.01 1.24805,-0.004 l 0.37304,0.004 4.59766,2.45508 -8.64258,8.2207 -0.67383,-0.041 c -0.8715,-0.0553 -1.73445,-0.17938 -2.56445,-0.37305 -0.80579,-0.18329 -1.6101,-0.4368 -2.38477,-0.74805 -0.72279,-0.249 -1.46035,-0.50865 -2.17968,-0.77148 -0.70204,-0.26629 -1.3937,-0.56029 -2.05079,-0.875 l -0.12109,0.0449 -4.16601,-2.375 c -2.83929,-1.62887 -5.35181,-3.61997 -7.46485,-5.93359 -2.10958,-2.31708 -3.88559,-5.07725 -5.2793,-8.20703 -1.39024,-3.19896 -1.94434,-6.60202 -1.65039,-10.11914 0.28359,-3.45833 1.40367,-7.13815 3.29883,-10.94922 l 0.11719,-0.20508 1.22852,-2.16406 c 0.12084,-0.20404 0.27015,-0.41091 0.42578,-0.59766 0.0934,-0.14525 0.18942,-0.29481 0.29296,-0.42969 0.11067,-0.14525 0.24253,-0.3014 0.38086,-0.45703 1.69458,-2.50383 3.6893,-4.73089 5.91993,-6.61914 2.22716,-1.90208 4.75649,-3.55465 7.50586,-4.89648 2.17355,-1.06603 4.5156,-1.62321 6.98242,-1.66407 z m -378.375,7.54883 c 1.6587,0.01 3.32963,0.18715 5,0.53125 3.39262,0.65363 6.55418,2.02644 9.40039,4.07032 2.80816,2.01946 5.41428,4.77592 7.73828,8.20312 l 0.0254,0.0371 c 0.18675,0.28012 0.3585,0.57022 0.51758,0.87109 0.12104,0.23517 0.25034,0.45791 0.38867,0.67578 l 0.0898,0.17969 c 0.1418,0.28704 0.26943,0.55239 0.4043,0.79102 0.14871,0.27666 0.28655,0.56 0.41797,0.85742 0.32508,0.61904 0.61249,1.25323 0.84766,1.89648 0.22133,0.61213 0.4459,1.26162 0.64648,1.93946 0.77812,2.45195 1.23789,5.03512 1.35547,7.67383 0.11412,2.6385 -0.11838,5.3633 -0.68555,8.12304 -0.57062,2.88425 -1.75232,5.53823 -3.51953,7.86914 -1.73262,2.28596 -4.05732,4.36317 -6.92773,6.17188 l -2.26172,1.43554 c -3.62087,2.28596 -7.19898,3.80728 -10.65039,4.50586 -1.49054,0.30088 -2.97524,0.45704 -4.42774,0.45704 -1.99545,0 -3.97695,-0.28741 -5.91015,-0.84766 -3.27158,-0.96142 -6.31195,-2.4407 -9.03711,-4.42578 -2.71133,-1.96433 -5.18966,-4.47551 -7.34766,-7.45313 l -0.13476,-0.20703 c -0.3078,-0.49454 -0.64322,-1.05584 -0.96485,-1.66797 -0.33891,-0.61212 -0.67927,-1.27497 -1.00781,-1.98047 -0.18329,-0.36658 -0.35866,-0.75194 -0.50391,-1.1289 -0.12796,-0.34929 -0.26731,-0.71753 -0.41601,-1.11524 l -0.0195,-0.0449 c -0.0968,-0.33546 -0.21055,-0.68241 -0.32813,-1.03516 -0.14179,-0.39059 -0.25774,-0.8048 -0.34766,-1.21289 -0.6882,-2.32399 -1.06006,-4.78267 -1.10156,-7.29687 -0.0553,-2.52458 0.24213,-5.15349 0.875,-7.81641 0.58792,-2.79433 1.8491,-5.42625 3.77539,-7.8125 1.87442,-2.33091 4.36801,-4.49542 7.43555,-6.43554 l 2.26172,-1.52149 c 3.07791,-1.8917 6.27008,-3.1712 9.48633,-3.81445 1.62022,-0.32335 3.26708,-0.48217 4.92578,-0.47266 z m 427.67383,21.07617 12.57812,10.02344 4.78906,3.91406 -3.64453,0.56446 -0.0527,0.0586 -0.58008,0.0859 c -0.166,0.0277 -0.33595,0.0373 -0.50195,0.0234 -0.12796,0.007 -0.249,0.008 -0.37696,-0.002 -0.083,0 -0.14897,-10e-4 -0.22851,-0.0117 l -0.0176,0.004 c -0.0795,0 -0.24226,0.0241 -0.5293,0.13477 -0.33891,0.1245 -0.70161,0.26295 -1.08203,0.4082 -0.30433,0.18675 -0.64949,0.43904 -1.01953,0.76758 -0.42537,0.37004 -0.90284,0.87119 -1.4043,1.49023 l -21.70508,26.5918 c 0.2663,0.32508 0.54365,0.62657 0.82032,0.91016 0.57754,0.59809 1.11935,1.16814 1.60351,1.69726 0.32509,0.32163 0.65372,0.64249 0.9961,0.94336 0.34237,0.31125 0.66096,0.61709 0.96875,0.91797 0.35966,0.24554 0.70812,0.46633 1.0332,0.67383 0.32854,0.21787 0.6785,0.41827 1.03125,0.60156 l 0.0898,0.041 c 0.46342,0.26609 0.9931,0.51145 1.54297,0.71874 0.59138,0.21442 1.19257,0.39907 1.80469,0.55469 l 0.084,0.0176 c 0.30088,0.0865 0.60086,0.15862 0.91211,0.20703 0.36659,0.0519 0.70886,0.10063 1.05469,0.13867 0.40463,0.0346 0.79911,0.0608 1.19336,0.0781 0.30088,0.0104 0.62532,0.0176 0.97461,0.0176 h 0.79688 l 4.375,3.36914 -12.03516,7.04883 -24.6211,-20.10157 1.1211,-1.36914 -0.16602,-1.28906 c 0.15909,-0.0277 0.32843,-0.031 0.51172,-0.0137 0.0761,-0.007 0.15573,-0.008 0.24219,-0.008 l 0.19727,-0.0312 0.14843,0.0273 0.13867,-0.0195 c 0.14525,-0.0208 0.30019,-0.0323 0.47657,-0.0254 0.42537,-0.10029 0.81957,-0.22345 1.17578,-0.36524 0.31816,-0.12795 0.60528,-0.29176 0.83008,-0.47851 0.34237,-0.28013 0.6566,-0.55553 0.96093,-0.81836 0.25246,-0.22825 0.48542,-0.47126 0.68946,-0.7168 l 23.02929,-28.21289 c 0.36659,-0.44612 0.66958,-0.87093 0.90821,-1.26172 0.28358,-0.4565 0.42257,-0.7293 0.48828,-0.87109 0.083,-0.21096 0.14148,-0.41539 0.19336,-0.63672 0.0277,-0.0968 0.0275,-0.19117 0.0137,-0.29492 l -0.0195,-0.15235 c 0,-0.0795 -0.008,-0.16968 -0.0254,-0.27343 -0.0346,-0.18675 -0.0515,-0.41491 -0.0723,-0.67774 -0.007,-0.25591 -0.007,-0.5049 0,-0.7539 0,-0.249 0.0212,-0.5115 0.0488,-0.78125 z m -483.21875,21.55664 h 0.23828 c 3.4687,0 6.83742,0.7368 10.01562,2.20313 3.14362,1.44904 6.22058,3.65795 9.16016,6.56641 l 0.0312,0.0391 c 0.23516,0.23862 0.45054,0.49303 0.67187,0.75586 0.15909,0.20058 0.33535,0.39422 0.51172,0.58789 l 0.13086,0.15234 c 0.18675,0.25938 0.36961,0.50104 0.53906,0.70508 0.20059,0.25592 0.39439,0.50926 0.57422,0.76172 0.44267,0.54642 0.83715,1.11627 1.19336,1.69727 0.33892,0.55313 0.67521,1.15203 1.01758,1.78124 1.23116,2.26175 2.16807,4.71518 2.78711,7.28126 0.62596,2.56587 0.91951,5.28754 0.87109,8.0957 0,2.94649 -0.64363,5.76726 -1.93359,8.38867 -1.26921,2.58337 -3.16072,5.06964 -5.62305,7.38672 l -1.94922,1.84765 c -3.11249,2.94304 -6.34247,5.11521 -9.58984,6.45704 -2.6975,1.11704 -5.47821,1.67968 -8.26563,1.67968 -0.64996,0 -1.30491,-0.0306 -1.95507,-0.0859 -3.39954,-0.31125 -6.66745,-1.19732 -9.72461,-2.61524 -3.03987,-1.42137 -5.95111,-3.40962 -8.63477,-5.92383 l -0.17773,-0.16796 c -0.39425,-0.42538 -0.82491,-0.91408 -1.26758,-1.45704 -0.43921,-0.5395 -0.90979,-1.1266 -1.35938,-1.74218 -0.249,-0.33892 -0.49456,-0.68257 -0.70898,-1.02149 -0.19712,-0.31471 -0.40517,-0.64664 -0.62305,-1.00976 l -0.0215,-0.041 c -0.16946,-0.30779 -0.35142,-0.62955 -0.53125,-0.95117 -0.21096,-0.36313 -0.40191,-0.74414 -0.56445,-1.1211 -1.1205,-2.15779 -1.95721,-4.49771 -2.48633,-6.95312 -0.52567,-2.46579 -0.74674,-5.1013 -0.63282,-7.84375 0.045,-2.84966 0.78762,-5.67584 2.20899,-8.39063 1.39371,-2.64542 3.43446,-5.24678 6.08008,-7.74023 l 1.91992,-1.92187 c 2.66983,-2.44504 5.55042,-4.31014 8.59375,-5.5586 2.97416,-1.22425 6.18045,-1.84179 9.50391,-1.8418 z m 524.625,12.36915 10.5957,11.48632 3.83984,4.25 -3.01367,0.33594 c -0.25246,0.0311 -0.5502,0.0866 -0.89258,0.15235 -0.34583,0.0726 -0.70043,0.16456 -1.05664,0.28906 -0.19366,0.0588 -0.3843,0.11727 -0.5918,0.19336 -0.14504,0.0519 -0.2771,0.11523 -0.38085,0.17382 l -0.17188,0.0801 c -0.19367,0.0795 -0.3399,0.14373 -0.46094,0.21289 -0.166,0.0968 -0.33172,0.20229 -0.52539,0.31641 l -0.0625,0.041 c -0.13833,0.0692 -0.24976,0.14763 -0.35351,0.21679 -0.0968,0.0588 -0.1622,0.12135 -0.23828,0.1836 l -0.1543,0.14648 -0.21094,0.10352 -0.33594,0.29687 -19.53711,17.58984 c -1.41099,1.26921 -2.49579,2.47956 -3.23242,3.60352 -0.69512,1.05825 -1.12172,2.04269 -1.27734,2.94531 -0.12796,1.00292 -0.12275,1.93038 -0.01,2.75 0.12796,0.80579 0.35701,1.55219 0.68555,2.22657 0.13142,0.22825 0.24871,0.45998 0.35938,0.70898 0.0449,0.0968 0.10059,0.18458 0.18359,0.26758 l 0.0996,0.11719 c 0.94066,0.89916 1.91867,1.62773 2.9043,2.14648 0.94738,0.49454 1.91374,0.78659 2.86132,0.87305 0.2905,0.0277 0.57071,0.0371 0.83008,0.0371 0.84383,0 1.65954,-0.13846 2.42383,-0.40821 1.00983,-0.35966 2.00945,-0.98173 2.95703,-1.83593 l 19.70508,-17.74219 c 0.75737,-0.67438 1.40475,-1.35179 1.95117,-2.00196 0.51183,-0.61192 0.88727,-1.18152 1.13281,-1.69335 l 0.0176,-0.0352 c 0.26975,-0.52567 0.45456,-1.04888 0.54102,-1.54688 0.10375,-0.56024 0.15429,-1.13115 0.15429,-1.6914 l 0.0254,-3.94922 11.25586,12.21875 4.01954,4.45898 -3.30079,0.12696 c -0.73662,0.038 -1.42482,0.13494 -2.05078,0.28711 -0.6052,0.14525 -1.19622,0.37295 -1.74609,0.67382 -0.6225,0.33892 -1.23509,0.73117 -1.84375,1.17383 -0.6225,0.44267 -1.23435,0.93031 -1.82227,1.46289 l -25.17968,22.67578 c -0.63979,0.57755 -1.18942,1.13014 -1.61133,1.65235 -0.415,0.50491 -0.76179,0.98641 -1.04883,1.43945 -0.16946,0.35621 -0.26937,0.69787 -0.2832,1.06445 -0.0138,0.33546 0.0665,0.70191 0.26367,1.09961 l -2.5586,1.70508 -9.56054,-10.61328 0.28711,-0.26953 c -0.38042,-0.166 -0.76758,-0.36701 -1.14453,-0.5918 -0.88534,-0.415 -1.80828,-1.01696 -2.75586,-1.78125 -0.93375,-0.7712 -1.91896,-1.72191 -2.92188,-2.83203 l -1.79492,-1.99609 c -1.89171,-2.10612 -3.29557,-4.21199 -4.16016,-6.25586 -0.913,-2.13725 -1.24525,-4.28857 -0.98242,-6.38086 0.23517,-1.9505 0.69851,-3.79732 1.38672,-5.47461 0.67437,-1.66346 1.59374,-3.22902 2.72461,-4.65039 0.10375,-0.16254 0.21835,-0.31418 0.33594,-0.46289 0.10721,-0.13488 0.23862,-0.26401 0.37695,-0.40235 0.12796,-0.16945 0.27691,-0.33566 0.43945,-0.48437 l 0.25196,-0.22461 c 0.21441,-0.25937 0.45367,-0.50177 0.69922,-0.72656 l 21.25195,-19.13477 c 0.40116,-0.35621 0.73639,-0.73901 1.02344,-1.13672 0.27666,-0.3977 0.50872,-0.7919 0.68164,-1.17578 0.15562,-0.45304 0.29318,-0.91459 0.40039,-1.37109 0.11066,-0.46688 0.1873,-0.97478 0.24609,-1.50391 z m -575.16602,29.75585 9.88477,7.57032 -3.0879,4.04297 -0.84765,-0.0762 c -0.38042,-0.038 -0.79529,0.0245 -1.26563,0.1836 -0.53604,0.16946 -1.11399,0.45552 -1.72265,0.83594 -0.45304,0.30433 -0.89225,0.63402 -1.29688,0.99023 -0.40116,0.34583 -0.7814,0.72339 -1.14453,1.12109 l -0.53516,0.70508 c -0.0795,0.17292 -0.17424,0.34963 -0.28124,0.51563 -0.0899,0.166 -0.19643,0.3309 -0.31055,0.48632 -0.0934,0.19021 -0.18112,0.36647 -0.26758,0.51172 -0.0519,0.0934 -0.10348,0.20184 -0.14844,0.3125 l -0.082,0.1836 c -0.13142,0.23171 -0.25261,0.48582 -0.36328,0.73828 l 7.9375,6.08398 3.63086,-4.73828 c 0.0311,-0.0588 0.0539,-0.10962 0.0781,-0.17187 0.045,-0.083 0.0732,-0.15683 0.0801,-0.19141 l -0.0801,-0.44141 2.89844,-4.00585 9.00586,6.88867 -3.03906,3.96679 -0.76563,0.0117 c -0.22479,0 -0.47724,0.0552 -0.7539,0.17969 -0.32509,0.13487 -0.69739,0.3911 -1.10547,0.72656 -0.332,0.27667 -0.65673,0.57621 -0.99219,0.90821 -0.30779,0.29395 -0.61319,0.60611 -0.91406,0.92773 -0.11413,0.2075 -0.22466,0.40745 -0.3457,0.59766 -0.14871,0.23862 -0.31191,0.48419 -0.48829,0.70898 -0.0242,0.0311 -0.0476,0.0631 -0.0684,0.0977 l 12.00391,9.1914 0.0937,-0.01 0.80469,0.61914 c 0.45304,0.249 0.92391,0.47263 1.37695,0.68359 0.42538,0.18675 0.86801,0.33676 1.3418,0.4336 0.34583,0.0484 0.70133,0.0297 1.06445,-0.043 0.3735,-0.0899 0.74821,-0.26557 1.11133,-0.52149 l 2.13086,2.2168 -9.99219,13.04102 -2.72851,-1.36133 c 0.0934,-0.31471 0.12112,-0.60586 0.0859,-0.86524 -0.0346,-0.32854 -0.0965,-0.62628 -0.19336,-0.89258 -0.14525,-0.32508 -0.30063,-0.6496 -0.48046,-0.94335 -0.14871,-0.249 -0.3113,-0.4842 -0.49805,-0.70899 -0.11758,-0.10375 -0.23939,-0.21941 -0.35352,-0.33008 -0.0415,-0.0553 -0.092,-0.0957 -0.15429,-0.14062 l -0.25977,-0.19727 -0.0801,-0.14453 -0.59765,-0.46094 c -0.15217,-0.11412 -0.29827,-0.25843 -0.42969,-0.41406 l -28.05274,-21.48437 c -0.42537,-0.332 -0.87988,-0.63244 -1.33984,-0.91602 -0.43229,-0.25246 -0.84358,-0.47027 -1.23437,-0.63281 -0.37005,-0.12104 -0.75403,-0.18299 -1.16211,-0.19336 -0.43921,0 -0.95086,0.0966 -1.52149,0.26953 l -4.57226,1.39648 14.99023,-19.875 2.06055,-2.68359 0.041,-0.006 h 0.008 c 0.0415,-0.10721 0.0886,-0.19719 0.10937,-0.28711 l -0.0762,-0.4082 z m 621.8457,26.62305 8.58399,13.35547 1.47265,2.35156 c 1.09975,1.93667 1.91057,3.86733 2.39453,5.73828 0.50146,1.92283 0.6426,3.83897 0.43165,5.67188 l -0.008,0.0332 c -0.26283,1.88825 -0.88384,3.61477 -1.84179,5.11914 -0.9545,1.50438 -2.29329,2.80369 -3.93946,3.85157 -1.00637,0.62941 -2.08218,1.10671 -3.19922,1.41796 -1.12741,0.31125 -2.32096,0.4362 -3.5625,0.38086 -1.20004,-0.0242 -2.33013,-0.215 -3.37109,-0.57812 0.0761,0.97871 0.0851,1.99001 0.0332,3.01367 -0.0761,1.30725 -0.29597,2.63465 -0.66601,3.95898 -0.38042,1.46979 -1.11676,2.85686 -2.19922,4.11915 -1.01675,1.20695 -2.41838,2.35895 -4.14063,3.4414 l -0.0625,0.0312 c -1.94012,1.11013 -3.80326,1.8702 -5.55664,2.24024 -0.90608,0.20058 -1.80985,0.30468 -2.66406,0.30468 -0.85075,0 -1.68009,-0.0943 -2.48242,-0.29492 -1.51129,-0.29741 -2.93164,-0.75372 -4.22852,-1.35547 -1.32799,-0.61904 -2.53969,-1.37923 -3.61523,-2.27148 l -0.0488,-0.0527 c -0.57062,-0.51183 -1.11333,-1.02633 -1.61133,-1.53125 -0.50491,-0.51183 -0.98763,-1.02454 -1.41992,-1.51562 l -0.0801,-0.10742 c -0.41845,-0.56025 -0.78579,-1.09905 -1.10742,-1.60742 l -11.26758,-17.89649 2.06446,-2.18164 c 0.0622,0.0242 0.12944,0.0622 0.20898,0.0898 0.0692,0.0311 0.1281,0.0646 0.19727,0.0957 0.0726,0.0138 0.14763,0.0389 0.21679,0.0527 l 0.13868,-0.0137 0.29296,0.0684 c 0.26284,0.0692 0.51993,0.0935 0.7793,0.0762 0.27667,-0.0207 0.53949,-0.0686 0.75391,-0.13086 0.332,-0.11758 0.72005,-0.28469 1.15234,-0.49219 0.44267,-0.2075 0.93617,-0.47207 1.46875,-0.81445 l 0.12109,-0.0742 30.80079,-19.39648 c 0.1245,-0.12796 0.25558,-0.23174 0.40429,-0.33203 l 0.33203,-0.21485 c 0.11413,-0.11066 0.24461,-0.22572 0.41407,-0.33984 l 0.13476,-0.0781 c 0.12796,-0.11758 0.24196,-0.23174 0.34571,-0.33203 0.11738,-0.11412 0.25017,-0.24643 0.40234,-0.38476 0.10029,-0.15563 0.21355,-0.30336 0.32422,-0.45899 0.13141,-0.18329 0.2463,-0.35308 0.35351,-0.51562 0.15563,-0.22825 0.26677,-0.4711 0.33594,-0.73047 0.0761,-0.23517 0.0921,-0.46629 0.0644,-0.71875 z m 2.03711,305.36719 0.94727,5.37305 c 0.10721,0.59137 0.24656,1.13123 0.41601,1.60156 0.15909,0.46341 0.35244,0.87756 0.57032,1.24414 l 0.0684,0.125 c 0.0899,0.16946 0.1742,0.31947 0.26757,0.43359 0.0796,0.10029 0.14373,0.16582 0.21289,0.22461 l 0.16407,0.14063 c 0.20404,0.22825 0.34428,0.34986 0.42383,0.41211 0.18309,0.14525 0.35096,0.27377 0.52734,0.41211 l 0.1543,0.14843 c 0.038,0.0311 0.0724,0.0583 0.10351,0.0859 0.0346,0.0173 0.0559,0.0322 0.0801,0.0391 l 1.19336,0.47266 0.25195,-0.01 0.28125,0.1211 c 0.0311,0.0208 0.0544,0.0273 0.082,0.0273 0.045,0.003 0.0704,0.004 0.10157,0.004 l 0.27539,-0.004 0.25,0.0586 50.0625,13.42187 0.0801,0.0352 c 0.34238,0.14179 0.51767,0.18583 0.59375,0.20312 0.1418,0.038 0.2879,0.0584 0.42969,0.0723 l 0.24219,0.0215 0.041,0.0215 0.26953,-0.11524 0.54687,0.23242 h 0.13477 l 0.1582,-0.0215 0.16211,0.0352 c 0.79887,0.12104 1.60558,0.18945 2.39062,0.18945 h 0.11329 c 0.76083,0 1.53303,-0.048 2.30078,-0.16211 0.67783,-0.11067 1.31699,-0.3225 1.89453,-0.5957 0.5395,-0.26284 0.9956,-0.61036 1.41406,-1.07032 l 2.58398,1.625 -9.00781,22.57813 -2.9375,-0.98828 c 0.10029,-0.34238 0.10819,-0.66772 0.0254,-0.98242 -0.10721,-0.40463 -0.277,-0.76326 -0.51562,-1.0918 -0.28704,-0.415 -0.60518,-0.79524 -0.96485,-1.14453 -0.332,-0.32509 -0.70926,-0.6398 -1.10351,-0.91992 -0.25938,-0.15563 -0.51813,-0.30865 -0.76367,-0.42969 -0.23863,-0.12104 -0.46768,-0.228 -0.68555,-0.31446 l -0.39844,-0.15624 c -0.22133,-0.0865 -0.42368,-0.20392 -0.60351,-0.34571 l -1.40235,-0.5664 c -0.10721,-0.0415 -0.19601,-0.0767 -0.26172,-0.11133 L 921.5,663.0625 l -32.21484,-8.88086 36.97656,32.46289 -1.96094,4.9043 -0.71484,0.69531 -0.29492,0.24219 c -0.6225,0.59137 -1.43927,1.1248 -2.41797,1.56055 -0.95796,0.44592 -2.09196,0.79502 -3.375,1.0371 -1.18275,0.23863 -2.43514,0.43499 -3.6836,0.56641 -1.26229,0.16254 -2.53397,0.24529 -3.80664,0.31445 h -0.041 -0.0449 l -38.57422,-0.42773 30.39062,16.79687 c 0.92683,0.35621 1.77449,0.6741 2.52149,0.90235 0.70895,0.22133 1.3484,0.36023 1.91211,0.41211 l 0.14648,0.0195 c 0.50492,0.10375 1.05332,0.12239 1.63086,0.0703 0.59829,-0.0553 1.19004,-0.16257 1.76758,-0.33203 0.11412,-0.0311 0.20378,-0.0563 0.31445,-0.084 l 0.25977,-0.21094 0.38476,-0.0176 c 0.18675,-0.0865 0.39016,-0.15532 0.59766,-0.19336 0.10375,-0.0346 0.20126,-0.0799 0.27734,-0.13867 0.038,-0.0138 0.0859,-0.0722 0.13086,-0.11719 l 2.67578,1.50391 -7.91211,19.81445 -2.98437,-0.4668 c -0.0242,-0.34929 -0.10101,-0.68993 -0.23242,-1.02539 -0.1418,-0.35966 -0.34834,-0.74263 -0.625,-1.12304 -0.32509,-0.47034 -0.66845,-0.91928 -1.00391,-1.35157 -0.31817,-0.415 -0.66739,-0.81697 -1.00977,-1.22851 -0.1487,-0.13488 -0.287,-0.26299 -0.42187,-0.36328 -0.249,-0.17292 -0.50686,-0.40469 -0.75586,-0.66407 -0.13833,-0.0968 -0.29494,-0.21774 -0.46094,-0.3457 -0.19712,-0.13487 -0.40802,-0.28668 -0.63281,-0.44922 l -0.0312,-0.01 c -0.34929,-0.26284 -0.68155,-0.45766 -0.98242,-0.61328 -0.35275,-0.17292 -0.64541,-0.31455 -0.86328,-0.39063 l -0.375,-0.16211 -43.3086,-23.8457 -0.0371,-0.0215 c -0.26629,-0.17291 -0.57124,-0.32317 -0.91015,-0.49609 -0.35275,-0.17637 -0.67089,-0.30865 -0.96485,-0.42969 l -0.55664,-0.21875 c -0.23516,-0.0968 -0.44679,-0.21713 -0.65429,-0.35547 l -0.65235,-0.27343 c -0.49108,-0.19713 -0.90327,-0.35349 -1.24219,-0.45703 -0.24554,-0.0692 -0.39746,-0.0918 -0.48046,-0.0918 l -0.19336,0.0234 -0.14844,-0.0352 c -0.166,-0.0173 -0.31899,-0.0176 -0.47461,-0.0176 -0.13833,0.0173 -0.28399,0.0531 -0.42578,0.10156 -0.17638,0.0692 -0.38593,0.1589 -0.6211,0.22461 -0.1245,0.0553 -0.27044,0.10963 -0.44336,0.17188 l -0.29492,0.10742 c 0.0104,0 -0.0332,0.0138 -0.15429,0.0898 -0.22134,0.12105 -0.40777,0.20549 -0.57032,0.25391 l -0.9414,0.35156 -3.19922,1.15821 7.21484,-18.77539 1.83985,-4.58399 47.21875,0.36523 -35.36719,-30.08398 z m -654.86133,8.67383 c 0.78958,-0.0283 1.56163,-0.0102 2.31641,0.0547 3.08137,0.273 5.91821,1.36549 8.4082,3.26757 2.43467,1.73263 4.51937,3.77952 6.20704,6.10352 1.68054,2.31362 3.03915,4.93639 4.03515,7.79297 l 1.48438,3.8789 -0.01,0.29493 v 0.0332 l 0.52148,1.49219 -0.0488,0.20703 0.51172,1.44922 0.0215,0.22851 c 0.007,0.1245 0.0306,0.24176 0.0859,0.4043 l 0.31836,0.94726 c 0.11066,0.53259 0.24912,1.09316 0.4082,1.64649 0.17983,0.63287 0.32174,1.3181 0.4082,2.00976 0.19021,0.77121 0.32822,1.58634 0.4043,2.38868 0.0692,0.72279 0.15663,1.44985 0.25,2.14843 0.10375,0.77813 0.16781,1.48236 0.18164,2.11524 0.0104,0.65362 -0.005,1.25526 -0.0781,1.80859 l -0.10352,0.96875 -13.42578,4.69922 -1.95117,-5.5918 0.14843,-0.50781 c 0.27667,-0.86458 0.53315,-1.85325 0.78907,-2.92187 0.23862,-1.05825 0.43873,-2.19958 0.58398,-3.42383 0.14525,-1.21733 0.21501,-2.41357 0.20117,-3.58594 -0.0242,-1.18621 -0.12876,-2.36656 -0.30859,-3.50781 l -0.0195,-0.13086 c -0.0173,-0.19367 -0.041,-0.40517 -0.0859,-0.62305 -0.0588,-0.249 -0.0934,-0.48989 -0.12109,-0.72851 -0.23171,-0.44959 -0.52258,-0.8888 -0.84766,-1.29688 -0.42537,-0.52221 -0.91094,-1.06299 -1.42969,-1.56445 -0.65362,-0.60521 -1.42102,-1.10665 -2.28906,-1.50781 -0.8715,-0.38042 -1.90787,-0.63556 -3.06641,-0.77735 -0.2732,-0.0208 -0.52639,-0.0391 -0.77539,-0.0391 -0.24208,-0.0104 -0.50548,-0.0311 -0.78906,-0.0449 -0.19021,0.0138 -0.36195,0.0459 -0.51758,0.084 -0.18329,0.0346 -0.37408,0.0905 -0.57812,0.15625 -0.86113,0.31471 -1.66588,0.83251 -2.38867,1.54492 -0.77121,0.75392 -1.45282,1.75606 -2.02344,2.99414 -0.61213,1.30034 -1.12394,2.6421 -1.50781,3.98047 -0.37696,1.35221 -0.6273,2.75649 -0.76563,4.20899 l -0.01,0.10742 -2.00196,12.11523 -0.0703,0.16211 c -0.12796,0.32163 -0.23715,0.67053 -0.33398,1.03711 -0.11413,0.44959 -0.22873,0.938 -0.33594,1.43946 -0.14179,0.57062 -0.28774,1.12366 -0.44336,1.65625 -0.16946,0.53604 -0.33848,1.11447 -0.53906,1.68164 -0.4565,1.26574 -1.01256,2.51419 -1.65235,3.72461 -0.63979,1.21041 -1.38814,2.44026 -2.22851,3.66796 -0.89917,1.30034 -1.95276,2.41167 -3.15625,3.32813 -1.2035,0.91991 -2.58323,1.64576 -4.07032,2.16797 -2.80124,0.98216 -5.54024,1.46875 -8.1582,1.46875 -0.73662,0 -1.47403,-0.0378 -2.19336,-0.10352 -3.3027,-0.36312 -6.45694,-1.56179 -9.35156,-3.54687 -2.79433,-1.88133 -5.26306,-4.25748 -7.32422,-7.08985 -2.0335,-2.78741 -3.75611,-6.06944 -5.11523,-9.74218 l -1.28321,-3.69141 c -0.40116,-1.12741 -0.7436,-2.28254 -1.04101,-3.46875 -0.28359,-1.17929 -0.52509,-2.3647 -0.71875,-3.58203 -0.18675,-1.18967 -0.37066,-2.44222 -0.53321,-3.66992 -0.15908,-1.26229 -0.27909,-2.54493 -0.33789,-3.8418 l -0.0176,-0.17578 0.0351,-0.17578 c 0,-0.0173 -10e-4,-0.0312 0.01,-0.0312 l -0.0977,-0.25977 c -0.10375,-0.31471 -0.14786,-0.64411 -0.11328,-0.97265 -0.0173,-0.29396 -0.007,-0.58345 0.0273,-0.88086 0.0173,-0.15217 0.0142,-0.32904 0.008,-0.50196 l -0.0605,-0.99218 14.70312,-7.96485 2.10157,6.02735 -0.33594,0.60937 c -0.56025,1.02367 -1.04761,2.0438 -1.44531,3.06055 -0.39425,0.97179 -0.68508,1.98463 -0.89258,2.96679 -0.0934,0.57409 -0.18938,1.10642 -0.2793,1.61133 -0.0761,0.44959 -0.12769,0.91306 -0.14844,1.41797 l -0.01,0.084 c -0.0553,0.47033 -0.10543,0.97042 -0.15039,1.49609 -0.0346,0.46342 -0.0505,0.91434 -0.0332,1.30859 v 0.0508 0.0352 c -0.0138,0.42192 -0.0185,0.81893 -0.0254,1.23047 -0.0104,0.32854 0.0102,0.64354 0.0586,0.9375 l 0.0254,0.1875 -0.0137,0.17578 c -0.0173,0.22479 -0.0118,0.48867 0.0332,0.74805 l 0.008,0.0644 c 0.0588,0.37004 0.10963,0.70959 0.17188,1.07617 0.0692,0.41846 0.14942,0.77766 0.23242,1.12696 0.0795,0.29395 0.16623,0.60643 0.27344,0.90039 0.54987,1.17237 1.16563,2.2824 1.82617,3.27148 0.6225,0.95104 1.35917,1.74571 2.17187,2.40625 1.04096,0.85075 2.10655,1.4731 3.18555,1.85352 1.03058,0.38387 2.13008,0.5058 3.28516,0.38476 0.22133,-0.0208 0.4459,-0.056 0.64648,-0.11133 0.24208,-0.0484 0.50174,-0.083 0.77149,-0.12109 l 0.18945,-0.0625 c 0.20404,-0.0692 0.41823,-0.12695 0.64648,-0.12695 l 0.45313,-0.15625 c 0.581,-0.2075 1.10808,-0.44644 1.5957,-0.72657 0.42538,-0.26283 0.78474,-0.57046 1.11328,-0.93359 l 0.0957,-0.10352 c 0.166,-0.15542 0.3298,-0.33306 0.47851,-0.5371 l 0.5,-0.65235 c 0.13833,-0.35275 0.32135,-0.69925 0.52539,-1.03125 0.13833,-0.20058 0.27484,-0.46385 0.40625,-0.75781 0.17638,-0.53604 0.37348,-1.09478 0.58789,-1.67578 0.20404,-0.55679 0.4112,-1.17931 0.61524,-1.83985 0.21441,-0.67437 0.42067,-1.36766 0.60742,-2.08007 0.19712,-0.67784 0.37847,-1.39933 0.54101,-2.16016 l 2.14649,-11.60742 c -0.0588,-0.2075 -0.0759,-0.43492 -0.0586,-0.65625 l -0.0273,-0.084 v -0.26171 c 0,-0.29396 0.0269,-0.55797 0.0684,-0.7793 0.0173,-0.13833 0.0461,-0.29331 0.0703,-0.43164 0.0623,-0.34929 0.1557,-0.72953 0.28711,-1.14453 0.11413,-0.35967 0.22527,-0.69417 0.33594,-1.00196 0.38387,-1.40408 0.87497,-2.79114 1.46289,-4.11914 0.60521,-1.37295 1.39723,-2.77861 2.33789,-4.17578 0.97871,-1.45595 2.14002,-2.75588 3.44727,-3.8418 1.30379,-1.08937 2.83996,-2.0093 4.54492,-2.75976 l 0.30664,-0.11328 c 2.62746,-0.913 5.14689,-1.41522 7.51562,-1.5 z m 52.05469,89.86328 21.70703,28.08789 0.0879,0.28516 c 0.0588,0.20058 0.1539,0.39019 0.27149,0.55273 0.18675,0.23862 0.38564,0.4492 0.60351,0.66016 l 0.10352,0.084 0.0859,0.11719 c 0.0588,0.0726 0.1281,0.1556 0.19726,0.21094 0.0899,0.0865 0.1727,0.14087 0.26953,0.20312 l 0.23243,0.15625 0.0449,0.0547 c 0.26283,0.11758 0.49457,0.23907 0.70898,0.38086 l 0.2168,0.13867 3.58594,4.44727 -13.16797,10.02929 -3.72852,-4.88086 0.17578,-0.72851 c 0.20059,-0.83 0.26688,-1.77069 0.20117,-2.75977 -0.0622,-0.96141 -0.2976,-1.93389 -0.69531,-2.87109 l -0.0391,-0.0859 c -0.28358,-0.79196 -0.68095,-1.64294 -1.1582,-2.49023 -0.47379,-0.84038 -0.99265,-1.66264 -1.53907,-2.4961 -0.26629,-0.26283 -0.51874,-0.53612 -0.7539,-0.83008 l -0.61914,-0.8164 c -0.44267,-0.48071 -0.91143,-1.0036 -1.38867,-1.57422 -0.14525,-0.16946 -0.30247,-0.34511 -0.45118,-0.52149 l -12.9082,9.82227 2.30859,3.0293 0.0625,0.14062 c 0.31125,0.60867 0.64335,1.141 0.9961,1.61133 0.37004,0.47725 0.7434,0.91271 1.09961,1.2793 l 0.13086,0.15234 c 0.25245,0.332 0.50926,0.58836 0.76172,0.75781 0.30433,0.21788 0.60521,0.38706 0.91992,0.52539 l 0.34179,0.15625 3.66602,4.54102 -11.88867,9.05273 -3.74219,-4.90234 0.20117,-0.73633 c 0.12104,-0.44958 0.16093,-0.94097 0.13672,-1.48047 -0.038,-0.57062 -0.14858,-1.19297 -0.3457,-1.85351 -0.25246,-0.74354 -0.56237,-1.45303 -0.90821,-2.13086 -0.356,-0.67092 -0.78296,-1.34804 -1.26367,-1.98438 l -0.17578,-0.21484 -0.0859,-0.29102 -0.82031,-1.09375 -17.95117,13.68555 c 0.0623,0.10029 0.10979,0.20708 0.1582,0.32813 l 0.36914,0.50195 -0.0293,0.15625 0.0137,0.0156 c 0.42191,0.79542 0.85331,1.61324 1.28906,2.41211 0.42538,0.79196 0.87207,1.60795 1.33203,2.44141 0.28359,0.48417 0.56949,0.94764 0.84961,1.41797 l 0.11133,0.19336 c 0.25246,0.43229 0.51105,0.86141 0.77734,1.31445 0.16946,0.1245 0.31585,0.2763 0.44727,0.44922 l 0.26562,0.3418 c 0.3908,0.42191 0.8066,0.81563 1.22852,1.21679 0.45304,0.415 0.90918,0.83008 1.36914,1.20703 0.415,0.332 0.87505,0.6617 1.37305,0.99024 0.5395,0.36658 1.08143,0.72204 1.63476,1.10937 1.079,0.66054 2.24105,1.19422 3.46875,1.62305 1.23463,0.43921 2.63235,0.77102 4.13672,0.97852 l 0.60938,0.0859 4.25586,5.27735 -17.79883,5.40625 -29.45899,-38.66797 4.01172,0.77344 c 0.33546,0.0726 0.69877,0.1053 1.07227,0.11914 0.43229,0.0242 0.84867,0.0242 1.26367,0 h 0.0781 0.0859 c 0.0657,0.0242 0.14568,0.0242 0.21485,0 0.2075,-0.0311 0.43565,-0.0667 0.67773,-0.084 0.22479,-0.0553 0.4879,-0.0652 0.77149,-0.0859 0.10009,0 0.16553,5.6e-4 0.20703,-0.0137 0.32162,-0.11066 0.65701,-0.20798 1.00976,-0.33593 0.30779,-0.1003 0.61559,-0.24221 0.91992,-0.40821 0.33892,-0.19366 0.68513,-0.40187 1.01368,-0.60937 0.32854,-0.22825 0.6848,-0.46597 1.04101,-0.7461 l 0.16992,-0.12109 38.91602,-29.65234 c 0.69166,-0.53604 1.41828,-1.14431 2.14453,-1.79102 0.71933,-0.68475 1.44986,-1.3594 2.14844,-2.06836 0.55679,-0.6225 1.01187,-1.3623 1.375,-2.19922 0.3735,-0.86458 0.60254,-1.86644 0.68554,-2.97656 z m 529.08203,36.97265 61.39844,24.36524 c 0.90608,0.35275 1.73277,0.6115 2.41406,0.76367 0.70204,0.15563 1.38141,0.29786 2.00391,0.38086 0.61212,0.0553 1.24376,0.10588 1.9043,0.1543 0.55679,0.0346 1.08208,0.0353 1.58007,0.0215 0.29396,-0.0692 0.61588,-0.087 0.9375,-0.0352 0.0726,0.0138 0.13909,0.0137 0.1875,0.0137 h 0.36915 0.45117 c 0.24208,-0.0346 0.49107,-0.0483 0.7539,-0.0137 l 0.10352,-0.0508 0.26953,0.0176 c 0.11758,-0.0173 0.22063,-0.0183 0.31055,-0.0391 0.0934,0 0.14872,-0.0144 0.16601,-0.0352 l 1.65039,2.51563 -16.35547,18.01758 -2.61132,-1.58008 c 0.21095,-0.56717 0.33366,-1.09367 0.36132,-1.56055 0.0242,-0.43575 -0.007,-0.81961 -0.10742,-1.13086 -0.10375,-0.33891 -0.24326,-0.65737 -0.40234,-0.9375 -0.14871,-0.25246 -0.33502,-0.46258 -0.53906,-0.65625 -0.166,-0.15216 -0.34841,-0.29436 -0.53516,-0.42578 -0.10029,-0.0761 -0.21803,-0.1427 -0.36328,-0.17383 -0.25246,-0.0865 -0.49111,-0.19687 -0.70899,-0.31445 -0.0899,-0.0519 -0.17961,-0.12045 -0.26953,-0.17578 -0.13833,-0.045 -0.27813,-0.11833 -0.41992,-0.1875 -0.0208,-0.0208 -0.0779,-0.0342 -0.13672,-0.0723 l -0.0566,-0.0137 c -0.12104,-0.038 -0.25139,-0.0647 -0.38281,-0.12695 -0.15563,-0.045 -0.30458,-0.0809 -0.43945,-0.13281 -0.19713,-0.0726 -0.40082,-0.14206 -0.61524,-0.22852 -0.18675,-0.0865 -0.34258,-0.15378 -0.48437,-0.24023 l -15.63477,-6.56055 -11.74805,12.9375 9.03907,15.91016 c 0.19712,0.25917 0.38657,0.52309 0.5664,0.76171 0.23517,0.31471 0.412,0.57359 0.54688,0.79493 0.0484,0.0726 0.0879,0.12195 0.13281,0.17382 l 0.40039,0.34961 c 0.25246,0.23863 0.49025,0.4144 0.71484,0.55274 0.19713,0.14179 0.39154,0.22201 0.56446,0.27734 0.18329,0.0692 0.39345,0.0954 0.61133,0.12305 0.2905,0.0138 0.50868,0.0142 0.72656,-0.0273 l 0.11914,-0.01 h 0.11914 c 0.22479,0 0.47077,0.009 0.75781,0.0508 h 0.15625 c 0.21442,-0.0692 0.40835,-0.10335 0.60547,-0.11719 l 0.21484,-0.0762 h 0.24415 c -0.0311,0 -0.30643,0.0771 -0.57618,0.37109 l 2.29883,2.0879 -15.38867,16.93945 -1.98633,-1.79883 -0.50781,0.0527 v -0.0312 c -0.045,0.0968 -0.0625,0.18698 -0.0625,0.27344 0.007,-0.17637 0.0168,-0.33265 0.041,-0.48828 -0.007,-0.19021 -0.007,-0.35878 0,-0.53516 0.0104,-0.18675 0.0314,-0.38551 0.0625,-0.57226 0.0415,-1.30379 -0.009,-2.47967 -0.12695,-3.52734 -0.13487,-1.06863 -0.35928,-2.07065 -0.66015,-2.9629 -0.31817,-0.9372 -0.67248,-1.82299 -1.03907,-2.59765 -0.33545,-0.71588 -0.67792,-1.33566 -0.99609,-1.86133 l -0.19727,-0.18164 -26.19531,-48.70117 -0.008,-0.1211 c -0.17292,-0.2075 -0.35504,-0.43504 -0.51758,-0.6875 l -0.0527,-0.0723 c -0.0899,-0.14179 -0.17315,-0.26718 -0.27344,-0.38477 -0.0726,-0.10029 -0.17034,-0.20651 -0.27734,-0.29297 -0.31125,-0.28012 -0.62581,-0.50257 -0.9336,-0.6582 -0.15217,-0.0865 -0.29392,-0.11735 -0.42187,-0.10351 l -0.17188,0.0176 -0.16601,-0.0176 c -0.32855,-0.038 -0.67818,-0.038 -1.0586,0 -0.415,0.0311 -0.83634,0.10299 -1.26172,0.18945 l -4.49218,0.8789 13.06445,-14.80078 z m -452.98633,49.65235 c 2.0361,0.0674 4.10319,0.37261 6.18165,0.91211 4.08774,1.09975 8.33712,3.08556 12.6289,5.96289 l 3.29883,2.07812 c 4.22262,2.91192 7.70953,6.29997 10.38281,10.09375 2.69404,3.82146 4.58209,8.14507 5.62305,12.86914 1.09283,4.73791 1.12657,9.63116 0.11328,14.45899 -1.00637,4.80362 -3.08493,9.76399 -6.18359,14.75781 l -0.0371,0.0508 c -0.249,0.37696 -0.52245,0.76188 -0.81641,1.125 -0.23862,0.31471 -0.46271,0.61917 -0.6875,0.95117 l -0.125,0.15235 c -0.31816,0.36658 -0.59926,0.71504 -0.83789,1.0332 -0.28704,0.33546 -0.56916,0.68452 -0.87695,1.02344 -0.59829,0.77121 -1.2517,1.51524 -1.94336,2.17578 -0.66746,0.65708 -1.39753,1.31032 -2.14453,1.95703 -2.739,2.42429 -5.83097,4.49866 -9.18555,6.16211 -3.34074,1.66346 -7.01681,2.94389 -10.93164,3.77734 -1.98162,0.46688 -4.01281,0.69532 -6.01172,0.69532 -2.02658,0 -4.0795,-0.24211 -6.0957,-0.70899 -3.93558,-0.94066 -7.95831,-2.75941 -11.94922,-5.42578 l -3.21289,-2.14844 c -5.05608,-3.36841 -9.0854,-7.1725 -11.97656,-11.21875 -2.92575,-4.12578 -4.7346,-8.67038 -5.38477,-13.54296 -0.65362,-4.77941 -0.46581,-9.57675 0.53711,-14.25586 0.996,-4.64108 2.83216,-9.29096 5.45703,-13.81446 l 0.16992,-0.25976 c 0.45996,-0.69859 0.99831,-1.43868 1.60352,-2.2168 0.59829,-0.77812 1.26655,-1.6123 1.98242,-2.44922 0.38387,-0.44612 0.78128,-0.88159 1.17187,-1.2793 0.38734,-0.39079 0.79594,-0.79219 1.21094,-1.19336 l 0.0312,-0.0332 c 0.38388,-0.32854 0.77417,-0.69201 1.17188,-1.05859 0.43229,-0.39425 0.88558,-0.7607 1.35937,-1.09961 2.62141,-2.24446 5.59158,-4.14647 8.83203,-5.6543 3.237,-1.50437 6.82459,-2.62967 10.64258,-3.35937 1.96087,-0.415 3.96606,-0.58502 6.00195,-0.51758 z m 396.8086,4.53711 -0.26172,2.91211 c -0.0519,0.58791 -0.20112,1.06832 -0.45703,1.49023 -0.083,0.11759 -0.15935,0.25482 -0.22852,0.42774 l -0.0937,0.19531 -0.13672,0.15039 c -0.0622,0.0692 -0.10514,0.13636 -0.13281,0.20898 -0.0346,0.0553 -0.0511,0.10336 -0.0684,0.17578 l -0.0488,0.20704 -0.0996,0.19336 c -0.19367,0.34237 -0.37355,0.7885 -0.49805,1.29687 -0.13833,0.48417 -0.21094,1.00424 -0.21094,1.51953 l -0.01,0.0898 c -0.007,0.1902 -7.7e-4,0.76351 0.4004,2.07421 0.31816,1.079 0.82367,2.35834 1.49804,3.82813 l 31.22071,56.52734 -4.74024,2.61133 c -0.39425,0.23171 -0.87232,0.40435 -1.39453,0.52539 -0.41846,0.10029 -0.86532,0.1906 -1.31836,0.25977 l -0.14844,0.0156 c -0.51875,0.038 -1.01929,0.053 -1.5,0.0703 -0.50491,0.0138 -1.05905,-0.0168 -1.60547,-0.0859 -0.52566,-0.0208 -1.00549,-0.0568 -1.45507,-0.0879 -0.48071,-0.038 -0.98577,-0.0851 -1.49414,-0.1543 l -0.16993,-0.0391 c -0.50837,-0.11759 -0.99316,-0.24151 -1.45312,-0.3418 -0.47033,-0.12796 -0.93368,-0.24672 -1.38672,-0.40234 -0.28358,-0.0553 -0.54564,-0.103 -0.77734,-0.18946 -0.17638,-0.0692 -0.35667,-0.12525 -0.54688,-0.1875 l -0.22461,-0.0918 -0.18359,-0.13868 c -0.0588,-0.0311 -0.13095,-0.0865 -0.20703,-0.12109 -0.0761,-0.0346 -0.17913,-0.0826 -0.31055,-0.11719 l -0.16016,-0.0742 -46.5664,-22.64843 16.66992,30.18164 c 0.71241,1.27958 1.39357,2.34419 2.01953,3.10156 0.58792,0.72625 1.18312,1.30375 1.76758,1.71875 0.581,0.35967 1.25854,0.67406 2.0332,0.94727 0.79196,0.28012 1.69842,0.47075 2.6875,0.59179 l -0.13867,1.21094 0.88086,1.59766 -19.18945,10.59375 -2.06055,-2.17969 c 0.0519,-0.0899 0.11382,-0.19399 0.19336,-0.34961 0.10029,-0.18675 0.22043,-0.40114 0.36914,-0.58789 0.0484,-0.10029 0.0928,-0.22739 0.13086,-0.32422 0.0519,-0.15562 0.0939,-0.29843 0.125,-0.41602 l 0.0352,-0.17578 0.082,-0.17578 c 0.21095,-0.43229 0.37822,-0.89999 0.47851,-1.39453 0.11413,-0.57754 0.18645,-1.16522 0.25195,-1.77734 -0.0138,-0.51183 -0.11118,-1.17183 -0.29101,-1.97071 -0.21096,-0.84729 -0.52071,-1.83669 -0.92188,-2.94336 l -0.0449,-0.0859 -23.29687,-42.15039 c -0.75392,-1.34875 -1.5111,-2.52764 -2.27539,-3.46485 -0.72625,-0.90262 -1.39752,-1.57763 -1.97852,-1.99609 -0.64671,-0.43229 -1.2503,-0.79141 -1.81055,-1.05078 -0.51529,-0.24208 -0.99039,-0.39914 -1.4121,-0.46485 h -0.13086 c -0.15563,0.0484 -0.31057,0.0664 -0.47657,0.0664 h -0.0449 c -0.24208,-0.0173 -0.47382,-0.0527 -0.70898,-0.14258 -0.0692,-0.0104 -0.1257,-0.0312 -0.19141,-0.0312 -0.14525,-0.0207 -0.2765,-0.0195 -0.39062,-0.0195 l -0.1875,-0.0137 -0.50782,-0.0723 -3.73047,-1.28125 6.54883,-3.60351 c 0.77813,-0.35967 1.62578,-0.77438 2.52149,-1.2793 l 10.71093,-5.92383 50.69532,24.34961 -15.8125,-28.60351 c -0.69513,-1.28304 -1.472,-2.39287 -2.28125,-3.33008 -0.79888,-0.90608 -1.62928,-1.65965 -2.47657,-2.28906 -0.81962,-0.48071 -1.59479,-0.79632 -2.34179,-0.92774 -0.70204,-0.12796 -1.39024,-0.0885 -2.05078,0.0879 l -1.17774,-2.84765 16.54102,-9.38282 z m -301.69727,43.83008 7.28711,1.625 c 0.81963,0.24208 1.73252,0.49155 2.72852,0.71289 l 11.95508,2.64843 21.89843,51.79883 7.08203,-31.91211 c 0.3078,-1.42137 0.47852,-2.77469 0.47852,-4.00586 0.0104,-1.19658 -0.11054,-2.33331 -0.3457,-3.35351 -0.28704,-0.88879 -0.66834,-1.65277 -1.13867,-2.24414 -0.44613,-0.56717 -0.96735,-0.98367 -1.58985,-1.29492 l 1.00196,-2.9043 18.60937,3.9082 6.63281,1.45508 -2.11328,2.00586 c -0.43575,0.415 -0.85319,0.69581 -1.3164,0.82031 -0.14871,0.0519 -0.30186,0.10767 -0.46094,0.16992 l -0.19336,0.0937 -0.2207,0.0274 c -0.083,0.0207 -0.16342,0.0339 -0.21876,0.0547 -0.0761,0.0346 -0.1239,0.0547 -0.17578,0.0996 l -0.17578,0.1211 -0.19726,0.0664 c -0.38388,0.1418 -0.79562,0.35664 -1.23828,0.65039 -0.42538,0.27321 -0.81282,0.62154 -1.16211,1.00196 l -0.0703,0.0664 c -0.12795,0.1418 -0.49342,0.57036 -1.07421,1.82227 -0.45996,1.02021 -0.94133,2.31716 -1.40821,3.85937 l -13.98437,63.03516 -5.28125,-1.17578 c -0.46342,-0.0865 -0.91037,-0.26211 -1.39453,-0.52148 -0.39771,-0.20405 -0.78756,-0.45083 -1.16797,-0.68946 l -0.11914,-0.0723 c -0.39425,-0.30434 -0.7841,-0.64338 -1.16797,-0.95118 -0.39425,-0.32488 -0.78532,-0.70894 -1.14844,-1.13085 -0.3735,-0.35967 -0.70812,-0.70438 -1.0332,-1.01563 -0.33546,-0.36658 -0.68257,-0.73046 -1.02149,-1.10742 l -0.10351,-0.14258 c -0.29396,-0.42883 -0.5775,-0.82841 -0.85742,-1.22266 -0.27667,-0.38387 -0.53677,-0.80375 -0.7754,-1.21875 -0.18329,-0.22133 -0.32667,-0.43491 -0.45117,-0.65625 -0.0968,-0.15908 -0.19373,-0.32858 -0.28711,-0.49804 l -0.11132,-0.21094 -0.0527,-0.2207 c -0.0173,-0.0726 -0.0372,-0.15654 -0.0684,-0.23242 -0.0311,-0.0796 -0.0857,-0.18951 -0.14453,-0.31055 l -0.0801,-0.15235 -19.9375,-47.78125 -7.45898,33.65039 c -0.32509,1.43521 -0.50538,2.66896 -0.54688,3.67188 -0.0346,0.91646 0.0377,1.74628 0.19336,2.44141 0.18675,0.65016 0.49036,1.34272 0.89844,2.05859 0.41154,0.74354 0.96552,1.4901 1.61914,2.21289 l -0.89844,0.82031 -0.40234,1.78125 h -0.0176 l -21.37891,-4.74804 -0.0898,-2.9961 c 0.083,-0.0346 0.20481,-0.0695 0.35352,-0.13867 0.2075,-0.0726 0.43565,-0.13412 0.67773,-0.18945 0.10375,-0.0484 0.21115,-0.0999 0.31836,-0.16211 0.14179,-0.0761 0.25607,-0.15634 0.36328,-0.23242 l 0.14453,-0.10352 0.17578,-0.0723 c 0.44267,-0.17638 0.87618,-0.43334 1.27735,-0.74805 0.46341,-0.34583 0.91866,-0.7393 1.36133,-1.1543 0.33545,-0.38387 0.70356,-0.95209 1.08398,-1.66797 0.40462,-0.76083 0.83244,-1.71019 1.25781,-2.82031 l 10.44336,-47.10352 c 0.34238,-1.52512 0.53992,-2.89505 0.5918,-4.10546 0.0553,-1.15509 -0.006,-2.09228 -0.18555,-2.80469 -0.17983,-0.75738 -0.39207,-1.42502 -0.64453,-1.99219 -0.22479,-0.498 -0.47634,-0.93241 -0.74609,-1.28516 -0.0346,-0.0311 -0.067,-0.0494 -0.10157,-0.084 -0.15562,-0.0692 -0.2852,-0.16969 -0.40625,-0.27344 -0.17983,-0.17637 -0.34709,-0.36578 -0.47851,-0.61133 -0.0173,-0.0346 -0.062,-0.0824 -0.10352,-0.13086 -0.10721,-0.107 -0.19735,-0.19499 -0.27343,-0.28124 l -0.14063,-0.13477 -0.33594,-0.38672 z m 170.32227,10.98046 c 1.34529,-0.038 2.68551,-0.0131 4.02734,0.0215 1.37642,0.0311 2.80804,0.14784 4.23633,0.32422 l 1.18164,0.15625 1.98633,15.06836 -5.91406,0.77734 -0.4668,-0.29492 c -1.31071,-0.81617 -2.64226,-1.54169 -3.9668,-2.19531 -1.26574,-0.6225 -2.60434,-1.07836 -3.99804,-1.35157 h -0.0449 c -1.12049,-0.26283 -2.25271,-0.43701 -3.35937,-0.5371 -1.07208,-0.0865 -2.12852,-0.0867 -3.16602,-0.0176 -2.68712,0.55333 -5.24448,1.575 -7.59961,3.01367 -2.39662,1.46633 -4.64004,3.42251 -6.65625,5.79492 -2.27558,2.60066 -3.88058,5.57457 -4.7832,8.84961 -0.89916,3.29579 -1.09598,6.98073 -0.57031,10.93359 l 0.0371,0.26563 0.14844,0.41211 0.15625,1.17578 c 0.87841,4.30908 2.11607,7.97778 3.67578,10.92773 1.51474,2.87042 3.42847,5.15645 5.66601,6.77149 2.30671,1.69112 4.6931,3.00827 7.0586,3.93164 2.34474,0.89571 4.79308,1.46316 7.25195,1.69141 0.34929,0.0415 0.66983,0.0652 0.9707,0.0859 0.249,0.0346 0.49604,0.076 0.75196,0.0899 0.3147,-0.0346 0.6588,-0.0346 1.02539,0 0.21441,0.0208 0.39792,0.0208 0.54296,0 l 0.97657,-0.1211 0.19922,0.0879 0.0156,-0.0215 c 0.81271,-0.15563 1.62451,-0.35936 2.41992,-0.57031 0.81617,-0.2075 1.5561,-0.43598 2.23047,-0.65039 0.89571,-0.31817 1.71935,-0.6641 2.46289,-0.9961 0.38042,-0.16946 0.73697,-0.34633 1.0586,-0.50195 l -1.97852,-15.0332 c -0.16254,-1.26575 -0.38801,-2.47688 -0.6543,-3.58008 -0.25245,-1.04442 -0.57751,-1.94213 -0.96484,-2.7168 l -0.0371,-0.0898 c -0.29742,-0.69859 -0.72955,-1.29673 -1.31055,-1.85352 -0.64325,-0.60521 -1.39188,-1.12553 -2.24609,-1.58203 l -4.17773,-2.23047 19.67578,-2.86914 6.04883,-0.79687 -0.57227,2.6289 -0.0684,0.52344 c -0.0622,0.30779 -0.11731,0.65596 -0.14844,1.01562 -0.0242,0.332 -0.0244,0.64428 0.0137,0.95899 l 3.70118,28.0664 0.12304,0.19727 0.0449,0.34375 c 0.0173,0.13488 0.0494,0.25835 0.084,0.39648 0.038,0.13834 0.096,0.27618 0.1582,0.41797 0.0519,0.1418 0.1362,0.28098 0.22266,0.42969 0.15562,0.24554 0.30315,0.51817 0.41015,0.77734 l 0.64454,1.4043 -1.41211,0.64453 c -1.39025,0.63634 -2.85619,1.2105 -4.38477,1.75 -1.45941,0.51875 -3.00202,1.02003 -4.58594,1.52149 -1.57354,0.58791 -3.17841,1.06758 -4.75195,1.46875 -1.577,0.38387 -3.19416,0.7307 -4.79883,1.0039 l -0.0664,0.0195 -6.22071,0.8125 c -2.60758,0.34584 -5.19897,0.52344 -7.73047,0.52344 -2.66291,0 -5.31852,-0.19079 -7.89843,-0.57812 -5.03187,-0.74354 -9.95683,-2.26214 -14.66016,-4.52735 -4.87624,-2.33091 -8.86072,-5.89506 -11.8418,-10.61914 -2.93612,-4.65836 -4.94748,-10.49703 -5.97461,-17.32031 l -0.0449,-0.38086 c -0.29396,-6.75411 0.39306,-12.74723 2.02539,-17.83789 1.66346,-5.15982 4.36905,-9.48494 8.01758,-12.86719 3.58283,-3.28541 7.57614,-5.97732 11.88867,-8.0039 4.30562,-2.00583 9.005,-3.38944 13.97461,-4.11914 l 3.9336,-0.6211 c 1.32108,-0.10375 2.66292,-0.19405 3.94921,-0.25976 1.29688,-0.0484 2.66489,-0.10755 4.0586,-0.13868 z"></path>
          </g>
          <g id="g88" transform="translate(436.5889,494.8096)"></g>
          <g id="g92" transform="translate(446.9502,501.7676)"></g>
          <g id="g96" transform="translate(434.5645,498.2422)"></g>
          <g id="g100" transform="translate(439.4863,504.4687)"></g>
          <g id="g104" transform="translate(446.9473,501.7798)"></g>
          <g id="g108" transform="translate(446.665,493.8125)"></g>
          <g id="g112" transform="translate(439.0059,491.6304)"></g>
          <g id="g116" transform="translate(407.7314,526.1431)"></g>
          <g id="g120" transform="translate(415.5225,535.8872)"></g>
          <g id="g124" transform="translate(404.7666,528.8052)"></g>
          <g id="g128" transform="translate(407.5908,536.2227)"></g>
          <g id="g132" transform="translate(415.5127,535.8999)"></g>
          <g id="g136" transform="translate(417.6338,528.2148)"></g>
          <g id="g140" transform="translate(410.9805,523.8345)"></g>
          <g id="g144" transform="translate(370.8008,547.3774)"></g>
          <g id="g148" transform="translate(375.3115,559.0122)"></g>
          <g id="g152" transform="translate(367.1699,549.0298)"></g>
          <g id="g156" transform="translate(367.6455,556.9487)"></g>
          <g id="g160" transform="translate(375.3027,559.0195)"></g>
          <g id="g164" transform="translate(379.624,552.3223)"></g>
          <g id="g168" transform="translate(374.5937,546.1479)"></g>
          <g id="g172" transform="translate(329.1982,556.5518)"></g>
          <g id="g176" transform="translate(330.0088,569.0059)"></g>
          <g id="g180" transform="translate(325.2363,557.042)"></g>
          <g id="g184" transform="translate(323.3145,564.7373)"></g>
          <g id="g188" transform="translate(329.999,569.0098)"></g>
          <g id="g192" transform="translate(336.1406,563.916)"></g>
          <g id="g196" transform="translate(333.1836,556.5186)"></g>
          <g id="g200" transform="translate(286.7588,552.8306)"></g>
          <g id="g204" transform="translate(283.7998,564.9526)"></g>
          <g id="g208" transform="translate(282.8379,552.1069)"></g>
          <g id="g212" transform="translate(278.6895,558.8696)"></g>
          <g id="g216" transform="translate(283.7842,564.9526)"></g>
          <g id="g220" transform="translate(291.1699,561.9375)"></g>
          <g id="g224" transform="translate(290.5752,553.9907)"></g>
          <g id="g228" transform="translate(247.3916,536.5483)"></g>
          <g id="g232" transform="translate(240.9346,547.2212)"></g>
          <g id="g236" transform="translate(243.8691,534.6821)"></g>
          <g id="g240" transform="translate(237.8823,539.8887)"></g>
          <g id="g244" transform="translate(240.917,547.2212)"></g>
          <g id="g248" transform="translate(248.8691,546.5562)"></g>
          <g id="g252" transform="translate(250.6846,538.7983)"></g>
          <g id="g256" transform="translate(214.7202,509.1997)"></g>
          <g id="g260" transform="translate(205.3555,517.4512)"></g>
          <g id="g264" transform="translate(211.918,506.3672)"></g>
          <g id="g268" transform="translate(204.6445,509.5381)"></g>
          <g id="g272" transform="translate(205.3462,517.4448)"></g>
          <g id="g276" transform="translate(213.1279,519.1914)"></g>
          <g id="g280" transform="translate(217.1885,512.3418)"></g>
        </g>
      </g>
    </g>
  </g>
</svg>
