
<svg xmlns="http://www.w3.org/2000/svg" xmlns:xlink="http://www.w3.org/1999/xlink" width="238.41pt" height="287.19pt" viewBox="0 0 238.41 287.19" version="1.1">
<g id="surface1">
<path style="stroke:none;fill-rule:nonzero;fill:rgb(0%,24.699402%,59.599304%);fill-opacity:1" d="M 238.347656 54.914063 C 231.335938 56.542969 223.953125 57.324219 216.371094 57.324219 C 195.976563 57.324219 174.101563 51.652344 153.789063 41.414063 C 154.160156 39.371094 154.359375 37.269531 154.359375 35.121094 C 154.359375 15.722656 138.644531 -0.00390625 119.242188 -0.00390625 C 99.839844 -0.00390625 84.105469 15.722656 84.105469 35.121094 C 84.105469 37.257813 84.3125 39.355469 84.679688 41.386719 C 64.34375 51.636719 42.445313 57.324219 22.03125 57.324219 C 14.449219 57.324219 7.074219 56.542969 0.0585938 54.914063 C -0.0507813 99.695313 -5.371094 218.972656 119.203125 287.191406 C 243.785156 218.972656 238.453125 99.695313 238.347656 54.914063 "></path>
<path style="stroke:none;fill-rule:nonzero;fill:rgb(0%,24.699402%,59.599304%);fill-opacity:1" d="M 17.132813 158.496094 C 30.613281 201.515625 59.109375 247.585938 119.207031 281.300781 L 119.207031 158.496094 "></path>
<path style="stroke:none;fill-rule:nonzero;fill:rgb(0%,24.699402%,59.599304%);fill-opacity:1" d="M 221.273438 158.496094 C 233.371094 119.878906 233.367188 83.71875 233.230469 61.164063 C 227.8125 62.035156 222.167969 62.472656 216.371094 62.472656 C 183.417969 62.476563 147.429688 48.460938 119.230469 24.816406 L 119.230469 158.496094 "></path>
<path style="stroke:none;fill-rule:nonzero;fill:rgb(97.599792%,74.499512%,0%);fill-opacity:1" d="M 119.234375 158.496094 L 119.234375 24.816406 C 119.226563 24.804688 119.214844 24.796875 119.207031 24.78125 C 91.007813 48.453125 55.003906 62.472656 22.03125 62.472656 C 16.242188 62.472656 10.59375 62.035156 5.179688 61.164063 C 5.03125 83.71875 5.03125 119.878906 17.132813 158.496094 L 119.207031 158.496094 "></path>
<path style="stroke:none;fill-rule:nonzero;fill:rgb(97.599792%,74.499512%,0%);fill-opacity:1" d="M 221.273438 158.496094 L 119.207031 158.496094 L 119.207031 281.300781 C 179.296875 247.585938 207.796875 201.515625 221.273438 158.496094 "></path>
<path style="stroke:none;fill-rule:nonzero;fill:rgb(0%,25.097656%,59.606934%);fill-opacity:1" d="M 37.539063 139.035156 L 37.589844 125.308594 C 38.375 125.171875 39.15625 125.046875 39.9375 124.914063 L 39.847656 137.066406 L 38.4375 141.769531 Z M 40.128906 100.199219 L 40.03125 112.667969 L 39.886719 112.6875 C 39.136719 112.777344 38.390625 112.859375 37.648438 112.949219 L 37.707031 100.351563 L 38.933594 96.429688 Z M 70.265625 98.902344 C 69.503906 100.910156 68.742188 102.925781 68 104.917969 C 67.316406 102.953125 66.636719 100.984375 65.964844 99 L 68.148438 96.003906 Z M 98.660156 99.707031 L 98.5 122.445313 C 97.648438 122.5 96.800781 122.550781 95.945313 122.605469 L 96.164063 99.78125 L 97.449219 96.753906 Z M 143.777344 128.363281 L 143.234375 129.652344 L 142.445313 127.824219 L 142.21875 99.71875 L 142.828125 98.21875 L 143.492188 99.78125 Z M 158.460938 124.082031 C 157.621094 123.988281 156.777344 123.890625 155.9375 123.800781 L 155.726563 105.394531 C 156.277344 105.40625 156.832031 105.417969 157.378906 105.429688 L 158.222656 105.449219 Z M 214.269531 147.476563 C 214.269531 147.476563 212.941406 142.359375 212.636719 141.210938 L 212.621094 100.460938 L 214.296875 94.75 L 198.71875 94.75 L 200.472656 100.347656 L 200.632813 137.402344 C 200.617188 137.375 200.601563 137.34375 200.582031 137.308594 C 197.804688 124.875 194.75 112.171875 191.511719 99.558594 L 193.089844 94.75 L 176.332031 94.75 L 178.074219 99.503906 C 175.675781 109.125 173.1875 118.675781 170.679688 127.910156 L 170.304688 99.164063 L 169.464844 98.4375 C 168.242188 97.386719 167.019531 96.347656 165.792969 95.332031 L 165.097656 94.75 L 127.910156 94.75 L 130.046875 99.71875 L 130.089844 107.328125 C 127.820313 103.09375 123.5 95.046875 123.5 95.046875 L 123.347656 94.75 L 23.875 94.75 L 25.558594 100.453125 L 25.53125 141.210938 L 23.628906 148.5 L 30.214844 146.296875 C 31.59375 145.839844 32.972656 145.390625 34.351563 144.96875 L 39.015625 143.550781 L 39.015625 143.535156 L 44.398438 142.042969 C 45.789063 141.660156 47.1875 141.296875 48.585938 140.9375 L 53.507813 139.710938 L 51.925781 135.269531 L 52.28125 100.148438 L 52.417969 99.765625 C 52.808594 100.328125 53.207031 100.886719 53.59375 101.4375 C 56.226563 108.394531 58.988281 115.390625 61.820313 122.230469 L 61.691406 132.164063 L 59.5 138.335938 L 66.058594 137.058594 C 67.472656 136.78125 68.886719 136.527344 70.300781 136.28125 L 75.625 135.398438 L 73.859375 130.933594 L 73.988281 121.058594 C 76.703125 114.542969 79.507813 108.050781 82.558594 101.226563 C 83.011719 100.664063 83.46875 100.109375 83.925781 99.558594 L 84 99.753906 L 83.65625 129.886719 L 84.71875 130.632813 C 85.921875 131.476563 87.125 132.3125 88.332031 133.140625 L 89.089844 133.660156 L 90.007813 133.570313 C 94.976563 133.0625 99.921875 132.683594 104.699219 132.445313 L 105.503906 132.40625 L 106.128906 131.898438 C 107.347656 130.921875 108.5625 129.957031 109.765625 129 L 110.703125 128.269531 L 110.835938 99.71875 L 111.507813 98.144531 L 112.167969 99.695313 L 112.117188 127.160156 L 109.949219 132.199219 L 116.097656 132.105469 C 117.109375 132.085938 118.117188 132.082031 119.121094 132.082031 L 126.539063 132.144531 L 124.367188 127.144531 L 124.359375 119.691406 C 126.402344 123.453125 128.445313 127.253906 130.507813 131.101563 L 131.171875 132.335938 L 132.578125 132.398438 C 135.414063 132.535156 138.148438 132.703125 140.699219 132.902344 L 145.191406 133.277344 L 154.109375 134.238281 C 157.710938 134.6875 161.132813 135.175781 164.277344 135.691406 L 165.269531 135.839844 L 166.085938 135.269531 C 166.707031 134.847656 167.332031 134.421875 167.949219 133.988281 C 167.453125 134.730469 167.058594 135.324219 167.058594 135.324219 L 166.578125 136.042969 L 172.6875 137.164063 C 174.109375 137.4375 175.511719 137.71875 176.921875 138.011719 L 183.503906 139.417969 L 181.816406 134.503906 L 182.746094 130.871094 C 184.265625 131.140625 185.789063 131.429688 187.308594 131.722656 C 187.734375 133.527344 188.164063 135.347656 188.585938 137.164063 L 187.457031 140.382813 L 192.324219 141.652344 C 193.730469 142.019531 195.128906 142.398438 196.507813 142.792969 L 203.816406 144.96875 C 205.199219 145.398438 206.578125 145.839844 207.953125 146.296875 L 214.53125 148.492188 "></path>
<path style="stroke:none;fill-rule:nonzero;fill:rgb(100%,100%,100%);fill-opacity:1" d="M 210.136719 101.179688 L 210.136719 100.117188 C 210.421875 99.148438 210.703125 98.179688 210.988281 97.203125 L 202.085938 97.203125 C 202.367188 98.117188 202.65625 99.039063 202.941406 99.964844 C 202.996094 112.777344 203.050781 125.585938 203.113281 138.394531 L 203.117188 138.394531 L 203.117188 139.410156 C 202.839844 140.253906 202.566406 141.09375 202.289063 141.933594 C 202.574219 142.011719 202.847656 142.09375 203.132813 142.191406 C 203.605469 142.332031 204.085938 142.476563 204.5625 142.625 C 205.949219 143.0625 207.34375 143.511719 208.738281 143.953125 C 209.214844 144.121094 209.679688 144.277344 210.164063 144.433594 C 210.4375 144.527344 210.722656 144.621094 210.988281 144.714844 C 210.722656 143.644531 210.4375 142.585938 210.160156 141.527344 C 210.152344 128.078125 210.144531 114.632813 210.136719 101.179688 "></path>
<path style="stroke:none;fill-rule:nonzero;fill:rgb(100%,100%,100%);fill-opacity:1" d="M 50.6875 97.203125 L 41.773438 97.203125 C 42.046875 98.085938 42.328125 98.96875 42.609375 99.832031 C 42.570313 104.507813 42.539063 109.183594 42.5 113.859375 C 42.125 114.234375 41.75 114.609375 41.375 114.988281 C 39.597656 115.191406 37.820313 115.390625 36.054688 115.617188 C 35.753906 115.371094 35.460938 115.140625 35.164063 114.890625 C 35.179688 110.261719 35.203125 105.625 35.222656 100.988281 L 35.21875 100.988281 C 35.21875 100.652344 35.222656 100.3125 35.226563 99.980469 C 35.515625 99.042969 35.796875 98.117188 36.09375 97.203125 L 27.171875 97.203125 C 27.464844 98.171875 27.75 99.140625 28.03125 100.105469 C 28.027344 113.546875 28.023438 127 28.011719 140.449219 L 28.019531 140.449219 L 28.019531 141.523438 C 27.734375 142.578125 27.453125 143.640625 27.171875 144.714844 C 27.453125 144.621094 27.734375 144.527344 28.011719 144.433594 C 28.488281 144.277344 28.960938 144.113281 29.433594 143.953125 C 30.820313 143.507813 32.222656 143.058594 33.621094 142.625 C 34.085938 142.476563 34.566406 142.328125 35.042969 142.191406 C 35.320313 142.09375 35.597656 142.011719 35.882813 141.933594 C 35.605469 141.09375 35.332031 140.261719 35.058594 139.425781 C 35.078125 134.261719 35.097656 129.105469 35.121094 123.960938 C 35.378906 123.675781 35.632813 123.394531 35.886719 123.117188 C 37.742188 122.796875 39.589844 122.476563 41.453125 122.183594 C 41.773438 122.425781 42.105469 122.660156 42.433594 122.894531 C 42.398438 127.417969 42.359375 131.941406 42.328125 136.453125 C 42.328125 136.773438 42.328125 137.101563 42.320313 137.425781 C 42.035156 138.386719 41.75 139.339844 41.457031 140.308594 C 41.734375 140.230469 42.023438 140.148438 42.308594 140.070313 C 42.78125 139.941406 43.261719 139.800781 43.738281 139.675781 C 45.144531 139.289063 46.558594 138.925781 47.972656 138.566406 C 48.449219 138.4375 48.933594 138.320313 49.421875 138.195313 C 49.703125 138.125 49.984375 138.058594 50.265625 137.984375 C 49.992188 137.214844 49.714844 136.449219 49.441406 135.675781 C 49.566406 124 49.679688 112.328125 49.792969 100.652344 C 49.792969 100.347656 49.800781 100.039063 49.804688 99.726563 C 50.097656 98.875 50.386719 98.039063 50.6875 97.203125 "></path>
<path style="stroke:none;fill-rule:nonzero;fill:rgb(100%,100%,100%);fill-opacity:1" d="M 160.878906 118.695313 C 160.910156 121.160156 160.933594 123.628906 160.972656 126.09375 C 160.652344 126.304688 160.332031 126.519531 160.011719 126.734375 C 158.15625 126.507813 156.292969 126.300781 154.425781 126.105469 C 154.105469 125.835938 153.796875 125.5625 153.484375 125.296875 C 153.398438 118.066406 153.308594 110.832031 153.222656 103.609375 C 153.535156 103.375 153.84375 103.144531 154.136719 102.910156 C 156.003906 102.945313 157.855469 102.984375 159.714844 103.035156 C 160.039063 103.292969 160.363281 103.550781 160.679688 103.8125 C 160.707031 106.28125 160.742188 108.746094 160.773438 111.210938 C 160.808594 113.707031 160.84375 116.203125 160.878906 118.695313 M 154 97.203125 L 145.089844 97.203125 C 145.386719 97.894531 145.671875 98.574219 145.972656 99.273438 C 146.0625 108.871094 146.152344 118.46875 146.261719 128.074219 C 146.261719 128.332031 146.265625 128.582031 146.265625 128.835938 C 145.984375 129.507813 145.703125 130.175781 145.417969 130.835938 C 145.703125 130.859375 146 130.890625 146.289063 130.921875 C 146.777344 130.960938 147.265625 131.011719 147.761719 131.0625 C 148.484375 131.132813 149.199219 131.210938 149.921875 131.289063 C 150.640625 131.371094 151.355469 131.445313 152.082031 131.523438 C 152.570313 131.585938 153.066406 131.644531 153.558594 131.703125 C 153.851563 131.738281 154.132813 131.773438 154.421875 131.808594 C 157.855469 132.230469 161.265625 132.71875 164.671875 133.261719 C 165.867188 132.445313 167.050781 131.609375 168.242188 130.777344 C 168.191406 126.984375 168.144531 123.195313 168.089844 119.398438 C 168.050781 116.824219 168.023438 114.25 167.988281 111.671875 C 167.941406 107.875 167.890625 104.085938 167.84375 100.289063 C 166.625 99.242188 165.414063 98.214844 164.195313 97.203125 "></path>
<path style="stroke:none;fill-rule:nonzero;fill:rgb(100%,100%,100%);fill-opacity:1" d="M 108.363281 97.203125 L 100.3125 97.203125 C 100.582031 97.882813 100.863281 98.5625 101.148438 99.230469 C 101.09375 107.503906 101.03125 115.777344 100.96875 124.054688 C 100.644531 124.308594 100.316406 124.550781 100 124.8125 C 98.132813 124.914063 96.25 125.03125 94.382813 125.179688 C 94.066406 124.96875 93.757813 124.75 93.449219 124.542969 C 93.527344 116.121094 93.605469 107.695313 93.691406 99.273438 C 93.988281 98.574219 94.277344 97.894531 94.570313 97.203125 L 85.65625 97.203125 C 85.933594 97.902344 86.210938 98.605469 86.484375 99.308594 C 86.371094 109.078125 86.261719 118.859375 86.152344 128.632813 C 87.347656 129.472656 88.554688 130.300781 89.742188 131.132813 C 94.679688 130.625 99.621094 130.242188 104.570313 130.003906 C 105.789063 129.015625 107.011719 128.042969 108.226563 127.082031 C 108.269531 117.792969 108.316406 108.5 108.355469 99.207031 C 108.644531 98.539063 108.9375 97.867188 109.21875 97.203125 "></path>
<path style="stroke:none;fill-rule:nonzero;fill:rgb(100%,100%,100%);fill-opacity:1" d="M 139.960938 127.59375 L 139.960938 127.335938 C 139.886719 117.976563 139.808594 108.609375 139.730469 99.246094 C 140.015625 98.566406 140.289063 97.882813 140.574219 97.203125 L 131.65625 97.203125 C 131.945313 97.867188 132.238281 98.539063 132.523438 99.214844 C 132.554688 105.253906 132.589844 111.289063 132.628906 117.332031 C 129.003906 110.515625 125.410156 103.84375 121.855469 97.203125 L 113.792969 97.203125 C 114.078125 97.867188 114.367188 98.53125 114.644531 99.207031 C 114.628906 108.691406 114.613281 118.175781 114.605469 127.664063 C 114.304688 128.332031 114.019531 129.011719 113.726563 129.679688 C 114.011719 129.679688 114.304688 129.664063 114.59375 129.664063 C 115.089844 129.660156 115.578125 129.652344 116.070313 129.648438 C 117.523438 129.632813 118.96875 129.632813 120.414063 129.632813 C 120.90625 129.636719 121.402344 129.636719 121.898438 129.640625 C 122.183594 129.648438 122.472656 129.652344 122.757813 129.65625 C 122.472656 128.984375 122.183594 128.316406 121.890625 127.648438 C 121.882813 121.746094 121.875 115.835938 121.867188 109.925781 C 125.449219 116.519531 129.066406 123.148438 132.703125 129.953125 C 135.433594 130.085938 138.15625 130.246094 140.890625 130.460938 C 140.578125 129.753906 140.273438 129.050781 139.964844 128.34375 C 139.964844 128.09375 139.964844 127.839844 139.960938 127.59375 "></path>
<path style="stroke:none;fill-rule:nonzero;fill:rgb(100%,100%,100%);fill-opacity:1" d="M 182.214844 121.160156 C 183.113281 117.0625 184.011719 112.902344 184.910156 108.683594 C 185.90625 113.050781 186.910156 117.488281 187.90625 122.003906 C 187.703125 122.140625 187.503906 122.277344 187.304688 122.410156 C 185.820313 122.191406 184.339844 121.972656 182.859375 121.761719 C 182.640625 121.566406 182.433594 121.363281 182.214844 121.160156 M 188.9375 99.480469 L 188.933594 99.480469 C 189.179688 98.722656 189.429688 97.960938 189.683594 97.203125 L 179.871094 97.203125 C 180.136719 97.921875 180.402344 98.648438 180.667969 99.371094 L 180.65625 99.371094 C 177.800781 110.863281 174.945313 121.777344 172.074219 132.234375 C 171.617188 132.925781 171.164063 133.617188 170.71875 134.300781 C 170.957031 134.351563 171.222656 134.390625 171.464844 134.4375 C 172.03125 134.546875 172.59375 134.644531 173.160156 134.753906 C 174.585938 135.03125 176.011719 135.3125 177.429688 135.609375 C 177.914063 135.707031 178.40625 135.8125 178.890625 135.910156 C 179.175781 135.96875 179.464844 136.039063 179.75 136.101563 C 179.574219 135.601563 179.402344 135.105469 179.230469 134.601563 C 179.730469 132.652344 180.238281 130.679688 180.746094 128.699219 C 181.011719 128.519531 181.296875 128.347656 181.566406 128.171875 C 183.949219 128.589844 186.328125 129.027344 188.703125 129.496094 C 188.980469 129.785156 189.261719 130.074219 189.535156 130.367188 C 190.078125 132.65625 190.621094 134.972656 191.164063 137.316406 C 191.003906 137.769531 190.835938 138.230469 190.683594 138.683594 C 190.960938 138.761719 191.246094 138.835938 191.523438 138.898438 C 192.007813 139.027344 192.484375 139.15625 192.972656 139.277344 C 194.382813 139.660156 195.789063 140.042969 197.1875 140.4375 C 197.746094 140.59375 198.296875 140.757813 198.851563 140.914063 C 199.101563 140.988281 199.351563 141.0625 199.597656 141.125 C 199.140625 140.089844 198.675781 139.046875 198.210938 138.019531 C 195.160156 124.429688 192.070313 111.621094 188.9375 99.480469 "></path>
<path style="stroke:none;fill-rule:nonzero;fill:rgb(100%,100%,100%);fill-opacity:1" d="M 80.429688 99.933594 C 81.175781 99.015625 81.917969 98.105469 82.664063 97.203125 L 72.078125 97.203125 C 72.398438 97.640625 72.726563 98.085938 73.058594 98.527344 C 71.359375 102.984375 69.65625 107.550781 67.953125 112.226563 C 66.371094 107.796875 64.792969 103.253906 63.214844 98.59375 C 63.546875 98.128906 63.890625 97.660156 64.222656 97.203125 L 53.632813 97.203125 C 54.355469 98.242188 55.082031 99.269531 55.804688 100.285156 C 58.644531 107.796875 61.472656 114.929688 64.308594 121.761719 C 64.253906 125.378906 64.210938 128.984375 64.160156 132.601563 C 63.867188 133.425781 63.578125 134.261719 63.277344 135.097656 C 63.558594 135.039063 63.851563 134.984375 64.136719 134.925781 C 64.617188 134.832031 65.109375 134.730469 65.59375 134.644531 C 67.019531 134.375 68.449219 134.121094 69.875 133.863281 C 70.363281 133.785156 70.855469 133.703125 71.347656 133.617188 C 71.625 133.570313 71.917969 133.523438 72.199219 133.476563 C 71.925781 132.777344 71.648438 132.082031 71.371094 131.382813 C 71.414063 127.769531 71.46875 124.164063 71.515625 120.554688 C 74.488281 113.40625 77.464844 106.5625 80.429688 99.933594 "></path>
<path style="stroke:none;fill-rule:nonzero;fill:rgb(100%,100%,100%);fill-opacity:1" d="M 216.503906 164.222656 C 199.644531 212.703125 166.914063 251.023438 119.207031 278.160156 C 71.496094 251.023438 38.761719 212.703125 21.898438 164.21875 C 8.203125 124.84375 7.789063 86.511719 7.894531 64.316406 C 12.488281 64.914063 17.230469 65.210938 22.03125 65.210938 C 38.527344 65.210938 56.285156 61.699219 73.398438 55.058594 C 79.367188 52.734375 85.265625 50.035156 91.007813 46.996094 C 95.648438 58.011719 106.539063 65.742188 119.242188 65.742188 C 131.929688 65.742188 142.8125 58.023438 147.464844 47.023438 C 153.183594 50.054688 159.054688 52.742188 165 55.054688 C 182.105469 61.699219 199.871094 65.210938 216.371094 65.210938 C 221.179688 65.210938 225.921875 64.914063 230.511719 64.316406 C 230.613281 86.511719 230.199219 124.859375 216.503906 164.222656 M 233.230469 61.164063 C 227.8125 62.035156 222.167969 62.472656 216.371094 62.472656 L 216.355469 62.472656 C 193.976563 62.472656 170.195313 56 148.410156 44.441406 C 149.351563 41.5 149.859375 38.375 149.859375 35.121094 C 149.859375 18.203125 136.148438 4.507813 119.242188 4.507813 C 102.328125 4.507813 88.617188 18.203125 88.617188 35.121094 C 88.617188 38.355469 89.128906 41.476563 90.054688 44.414063 C 68.25 55.988281 44.445313 62.472656 22.03125 62.472656 C 16.242188 62.472656 10.59375 62.035156 5.179688 61.164063 C 4.878906 108.851563 5.171875 217.316406 119.207031 281.300781 C 233.242188 217.316406 233.523438 108.851563 233.230469 61.164063 "></path>
<path style="stroke:none;fill-rule:nonzero;fill:rgb(0%,24.699402%,59.599304%);fill-opacity:1" d="M 119.242188 63.003906 C 103.859375 63.003906 91.359375 50.492188 91.359375 35.121094 C 91.359375 19.746094 103.859375 7.238281 119.242188 7.238281 C 134.613281 7.238281 147.121094 19.746094 147.121094 35.121094 C 147.121094 50.492188 134.613281 63.003906 119.242188 63.003906 "></path>
<path style="stroke:none;fill-rule:nonzero;fill:rgb(100%,100%,100%);fill-opacity:1" d="M 127.746094 22.347656 L 127.804688 22.390625 C 130.59375 21.882813 133.039063 21.71875 135.226563 21.71875 L 135.300781 21.617188 C 135.253906 19.511719 135.027344 17.714844 134.519531 16.09375 C 131.875 13.980469 128.789063 12.386719 125.410156 11.511719 C 123.359375 11.777344 121.625 12.566406 119.878906 13.652344 L 119.828125 16.59375 L 119.902344 16.597656 C 122.980469 18.367188 125.589844 20.28125 127.746094 22.347656 "></path>
<path style="stroke:none;fill-rule:nonzero;fill:rgb(100%,100%,100%);fill-opacity:1" d="M 110.679688 22.390625 L 110.734375 22.347656 C 112.886719 20.28125 115.492188 18.367188 118.574219 16.597656 L 118.648438 16.59375 L 118.640625 13.699219 C 118.640625 13.699219 116.300781 11.894531 113.070313 11.503906 C 109.699219 12.386719 106.605469 13.980469 103.964844 16.09375 C 103.457031 17.714844 103.226563 19.511719 103.179688 21.613281 L 103.257813 21.71875 C 105.445313 21.71875 107.878906 21.882813 110.679688 22.390625 "></path>
<path style="stroke:none;fill-rule:nonzero;fill:rgb(100%,100%,100%);fill-opacity:1" d="M 99.433594 40.125 C 98.027344 36.785156 97.171875 33.441406 96.902344 29.847656 C 96.902344 29.847656 96.160156 29.753906 95.3125 30.171875 C 94.976563 31.773438 94.804688 33.441406 94.804688 35.152344 C 94.804688 40.644531 96.628906 45.722656 99.695313 49.808594 L 99.710938 49.816406 C 99.164063 48.460938 98.507813 45.074219 99.433594 40.125 "></path>
<path style="stroke:none;fill-rule:nonzero;fill:rgb(100%,100%,100%);fill-opacity:1" d="M 113.046875 31.621094 C 111.839844 28.820313 110.894531 26.257813 110.410156 23.890625 L 110.371094 23.835938 C 108.109375 23.4375 105.710938 23.234375 102.789063 23.28125 L 102.660156 23.300781 C 101.085938 24.925781 99.75 26.945313 98.667969 29.398438 L 98.65625 29.480469 C 98.980469 35.894531 100.847656 39.265625 100.847656 39.265625 L 107.171875 40.871094 L 113.058594 31.695313 "></path>
<path style="stroke:none;fill-rule:nonzero;fill:rgb(100%,100%,100%);fill-opacity:1" d="M 112.683594 50.84375 C 112.261719 51.488281 111.320313 53.257813 110.953125 56.230469 C 111.804688 57.441406 112.644531 58.359375 113.417969 58.886719 C 113.683594 58.949219 113.941406 59.011719 114.210938 59.0625 C 115.898438 59.371094 117.578125 59.53125 119.242188 59.535156 C 120.90625 59.53125 122.589844 59.371094 124.277344 59.0625 C 124.539063 59.011719 124.800781 58.941406 125.0625 58.886719 C 125.617188 58.503906 126.214844 57.910156 126.828125 57.15625 L 127.683594 55.949219 C 127.289063 53.074219 126.34375 51.40625 125.960938 50.804688 C 119.699219 52.367188 114.644531 51.378906 112.683594 50.84375 "></path>
<path style="stroke:none;fill-rule:nonzero;fill:rgb(100%,100%,100%);fill-opacity:1" d="M 124.136719 32.394531 L 124.039063 32.316406 C 124.039063 32.316406 122.058594 32.890625 119.242188 32.890625 C 116.421875 32.890625 114.4375 32.316406 114.4375 32.316406 L 114.34375 32.394531 L 108.355469 41.71875 L 108.328125 41.894531 L 111.769531 47.511719 C 112.28125 48.324219 112.652344 48.800781 112.757813 49.035156 L 112.839844 49.035156 C 115.015625 49.476563 117.132813 49.714844 119.242188 49.730469 C 121.34375 49.714844 123.464844 49.476563 125.640625 49.035156 L 125.71875 49.035156 C 125.816406 48.800781 126.199219 48.324219 126.707031 47.511719 L 130.140625 41.894531 L 130.121094 41.71875 "></path>
<path style="stroke:none;fill-rule:nonzero;fill:rgb(100%,100%,100%);fill-opacity:1" d="M 139.816406 29.398438 C 138.726563 26.941406 137.390625 24.925781 135.820313 23.300781 L 135.6875 23.28125 C 132.773438 23.234375 130.363281 23.4375 128.101563 23.835938 L 128.066406 23.890625 C 127.582031 26.257813 126.640625 28.820313 125.429688 31.621094 L 125.417969 31.695313 L 131.304688 40.871094 L 137.636719 39.265625 C 137.636719 39.265625 139.492188 35.894531 139.816406 29.480469 "></path>
<path style="stroke:none;fill-rule:nonzero;fill:rgb(100%,100%,100%);fill-opacity:1" d="M 143.679688 35.152344 C 143.679688 33.441406 143.496094 31.777344 143.164063 30.171875 C 142.320313 29.742188 141.574219 29.847656 141.574219 29.847656 C 141.3125 33.332031 140.488281 36.585938 139.15625 39.828125 L 139.164063 39.824219 C 140.070313 44.347656 139.585938 47.820313 139.019531 49.476563 C 141.945313 45.449219 143.679688 40.492188 143.679688 35.152344 "></path>
<path style="stroke:none;fill-rule:nonzero;fill:rgb(100%,100%,100%);fill-opacity:1" d="M 119.195313 239.699219 C 118.960938 239.707031 118.710938 239.707031 118.457031 239.707031 C 115.4375 239.707031 112.824219 239.425781 111.097656 238.910156 C 110.179688 238.636719 109.824219 238.320313 109.171875 237.21875 C 108.875 236.730469 108.59375 236.203125 108.289063 235.640625 C 106.65625 232.613281 104.621094 228.84375 99.28125 226.328125 L 98.933594 226.164063 C 95.511719 224.566406 89.25 221.636719 86.285156 211.722656 C 85.660156 212.53125 84.746094 213.992188 84.40625 215.953125 L 84.199219 217.097656 L 83.441406 216.222656 C 83.136719 215.875 76.191406 207.636719 79.539063 189.929688 C 78.503906 190.234375 76.613281 191.015625 75 192.914063 L 74.082031 194.003906 L 74.019531 192.582031 C 74.011719 192.292969 73.800781 185.589844 78.097656 178.988281 C 77.8125 178.527344 77.03125 177.515625 75.507813 176.925781 L 74.773438 176.648438 L 75.28125 176.058594 C 75.355469 175.96875 77.050781 174 80.296875 173.015625 C 79.941406 172.3125 79.210938 171.109375 78.148438 170.566406 L 77.363281 170.164063 L 78.066406 169.636719 C 78.097656 169.617188 80.765625 167.566406 80.933594 165.152344 C 81.007813 164.09375 80.589844 163.097656 79.683594 162.1875 C 75.414063 157.878906 73.398438 153.53125 73.507813 148.902344 C 73.585938 145.742188 74.710938 143.476563 76.960938 141.980469 C 78.046875 141.246094 79.597656 140.863281 81.457031 140.863281 C 86.238281 140.863281 93.59375 143.492188 98.859375 150.851563 C 100.609375 149.109375 107.042969 143.675781 119.195313 143.675781 L 119.273438 143.675781 C 131.390625 143.699219 137.808594 149.109375 139.554688 150.851563 C 144.816406 143.492188 152.164063 140.863281 156.957031 140.863281 C 158.8125 140.863281 160.367188 141.246094 161.453125 141.980469 C 163.695313 143.476563 164.828125 145.742188 164.902344 148.902344 C 165.011719 153.53125 162.996094 157.878906 158.726563 162.1875 C 157.828125 163.097656 157.398438 164.09375 157.484375 165.152344 C 157.648438 167.566406 160.320313 169.617188 160.339844 169.636719 L 161.050781 170.164063 L 160.261719 170.566406 C 159.195313 171.121094 158.46875 172.3125 158.113281 173.015625 C 161.359375 174 163.058594 175.96875 163.128906 176.058594 L 163.632813 176.648438 L 162.910156 176.925781 C 161.382813 177.515625 160.609375 178.527344 160.308594 178.988281 C 164.613281 185.589844 164.402344 192.292969 164.390625 192.582031 L 164.332031 194.003906 L 163.414063 192.914063 C 161.796875 191 159.902344 190.226563 158.875 189.929688 C 162.222656 207.632813 155.277344 215.875 154.96875 216.222656 L 154.214844 217.097656 L 154.011719 215.953125 C 153.65625 213.992188 152.742188 212.53125 152.121094 211.722656 C 149.164063 221.636719 142.894531 224.566406 139.480469 226.164063 L 139.128906 226.328125 C 133.789063 228.84375 131.757813 232.613281 130.125 235.640625 C 129.824219 236.203125 129.53125 236.730469 129.246094 237.21875 C 128.589844 238.320313 128.226563 238.636719 127.308594 238.910156 C 125.589844 239.425781 122.980469 239.707031 119.953125 239.707031 L 119.949219 239.707031 C 119.703125 239.707031 119.453125 239.707031 119.195313 239.699219 "></path>
<path style="stroke:none;fill-rule:nonzero;fill:rgb(95.298767%,59.199524%,0%);fill-opacity:1" d="M 142.730469 180.449219 C 140.972656 185.332031 136.550781 185.605469 134.222656 186.097656 C 132.632813 186.425781 132.1875 187.3125 132.042969 187.769531 C 131.625 189.871094 131.691406 190.117188 131.691406 190.117188 L 128.648438 183.011719 C 128.648438 183.011719 128.335938 179.632813 130.035156 175.785156 C 128.648438 174.871094 128.0625 173.25 128.0625 173.25 C 132.679688 172.855469 134.609375 170.433594 135.113281 169.78125 C 135.113281 169.78125 135.933594 167.613281 136.054688 168.023438 C 137.308594 167.734375 138.359375 167.410156 139.234375 167.066406 C 143.640625 165.792969 143.6875 162.503906 143.496094 161.9375 C 143.09375 161.148438 146.089844 162.503906 145.417969 172.089844 C 149.429688 176.074219 144.019531 176.867188 142.730469 180.449219 M 109.765625 183.011719 L 106.71875 190.117188 C 106.71875 190.117188 106.789063 189.871094 106.371094 187.769531 C 106.21875 187.3125 105.777344 186.425781 104.183594 186.097656 C 101.863281 185.605469 97.449219 185.332031 95.679688 180.449219 C 94.390625 176.867188 88.980469 176.074219 93 172.089844 C 92.320313 162.503906 95.320313 161.148438 94.90625 161.9375 C 94.726563 162.503906 94.765625 165.792969 99.179688 167.066406 C 100.050781 167.410156 101.097656 167.734375 102.351563 168.023438 C 102.480469 167.613281 103.300781 169.78125 103.300781 169.78125 C 103.804688 170.433594 105.730469 172.855469 110.347656 173.25 C 110.347656 173.25 109.765625 174.871094 108.378906 175.785156 C 110.074219 179.632813 109.765625 183.011719 109.765625 183.011719 M 165.820313 150.851563 C 166.242188 148.070313 163.769531 142.09375 161.273438 141.628906 C 159.179688 140.773438 156.820313 139.460938 149.425781 142.15625 C 141.789063 144.949219 139.945313 149.351563 139.582031 150.246094 C 139.582031 150.246094 136.898438 143.625 119.246094 143.554688 L 119.164063 143.554688 C 101.511719 143.625 98.828125 150.246094 98.828125 150.246094 C 98.46875 149.351563 96.617188 144.949219 88.988281 142.15625 C 81.589844 139.460938 79.238281 140.773438 77.148438 141.628906 C 74.644531 142.09375 72.167969 148.082031 72.585938 150.851563 C 73.15625 156.550781 78.3125 160.804688 79.722656 162.464844 C 80.882813 163.804688 81.527344 167.121094 77.027344 169.925781 C 79.101563 170.714844 80.316406 172.898438 80.316406 172.898438 C 78.320313 173.601563 75.707031 175.699219 74.882813 176.277344 C 75.9375 176.640625 78.167969 177.261719 78.578125 179.140625 C 78.578125 179.140625 76.292969 181.984375 77.703125 187.128906 C 79.667969 185.523438 84.667969 187.792969 82.132813 193.695313 C 82.132813 193.695313 85.277344 192.613281 85.679688 190.914063 C 85.679688 190.914063 87.695313 196.75 82.144531 198.164063 C 82.144531 198.164063 85.425781 200.191406 93.375 194.914063 C 95.519531 195.671875 99.492188 196.023438 103.347656 194.921875 C 103.347656 194.921875 94.375 201.867188 105.402344 207.820313 C 108.945313 209.902344 114.101563 210.429688 118.097656 209.214844 C 118.480469 209.074219 118.839844 208.882813 119.207031 208.664063 C 119.566406 208.882813 119.929688 209.074219 120.316406 209.214844 C 124.308594 210.429688 129.472656 209.902344 133.007813 207.820313 C 144.039063 201.867188 135.058594 194.921875 135.058594 194.921875 C 138.917969 196.023438 142.890625 195.671875 145.035156 194.914063 C 152.992188 200.191406 156.265625 198.164063 156.265625 198.164063 C 150.71875 196.75 152.726563 190.914063 152.726563 190.914063 C 153.132813 192.613281 156.277344 193.695313 156.277344 193.695313 C 153.738281 187.792969 158.742188 185.523438 160.707031 187.128906 C 162.113281 181.984375 159.839844 179.140625 159.839844 179.140625 C 160.242188 177.261719 162.480469 176.640625 163.535156 176.277344 C 162.699219 175.699219 160.09375 173.601563 158.09375 172.898438 C 158.09375 172.898438 159.3125 170.714844 161.382813 169.925781 C 156.890625 167.121094 157.539063 163.804688 158.691406 162.464844 C 160.101563 160.804688 165.261719 156.550781 165.820313 150.851563 "></path>
<path style="stroke:none;fill-rule:nonzero;fill:rgb(95.298767%,59.199524%,0%);fill-opacity:1" d="M 91.90625 209.617188 C 91.898438 218.636719 100.78125 220.183594 105.390625 220.53125 C 104.558594 218.378906 102.246094 214.386719 101.667969 212.636719 C 99.421875 211.179688 95.613281 209.195313 91.90625 209.617188 "></path>
<path style="stroke:none;fill-rule:nonzero;fill:rgb(100%,100%,100%);fill-opacity:1" d="M 106.726563 179.527344 C 106.84375 180.390625 106.21875 181.90625 104.410156 181.570313 C 102.511719 181.226563 102.3125 179.507813 102.535156 178.476563 C 102.628906 178.070313 102.789063 177.839844 102.929688 177.703125 C 102.324219 177.496094 101.652344 177.273438 100.894531 177.058594 C 100.894531 177.058594 99.984375 181.113281 103.265625 182.480469 C 106.789063 183.953125 107.804688 180.578125 107.804688 180.578125 C 107.804688 180.578125 107.621094 180.164063 106.726563 179.527344 "></path>
<path style="stroke:none;fill-rule:nonzero;fill:rgb(0%,25.097656%,59.606934%);fill-opacity:1" d="M 100.894531 177.058594 C 101.652344 177.273438 102.324219 177.492188 102.929688 177.703125 C 102.789063 177.835938 102.628906 178.070313 102.535156 178.476563 C 102.3125 179.507813 102.511719 181.226563 104.410156 181.570313 C 106.21875 181.90625 106.84375 180.390625 106.722656 179.527344 C 107.621094 180.164063 107.804688 180.578125 107.804688 180.578125 C 107.804688 180.578125 106.789063 183.953125 103.265625 182.480469 C 99.984375 181.113281 100.894531 177.058594 100.894531 177.058594 M 91.53125 165.742188 C 94.195313 171.605469 88.523438 177.058594 88.523438 177.058594 C 88.523438 177.058594 93.585938 176.570313 95.320313 180.433594 C 97.3125 184.90625 100.902344 185.359375 100.902344 185.359375 C 98.226563 184.082031 97.347656 182.082031 96.976563 180.292969 C 96.648438 178.730469 97.507813 178.378906 98.007813 178.363281 C 100.144531 178.296875 98.320313 182.507813 103.511719 184.523438 C 105.308594 185.222656 106.101563 186.4375 106.371094 187.769531 C 106.789063 189.871094 105.972656 192.09375 105.972656 192.09375 C 105.972656 192.09375 109.316406 188.023438 109.734375 184.242188 C 109.800781 183.679688 109.882813 182.789063 109.71875 181.777344 C 109.453125 180.121094 108.519531 178.148438 105.730469 176.691406 C 99.949219 173.675781 95.554688 173.675781 95.554688 173.675781 C 95.554688 173.675781 96.726563 174.117188 97.625 175.175781 C 97.921875 175.519531 98.226563 176.246094 97.132813 176.078125 C 96.144531 175.929688 94.675781 175.472656 94.617188 175.453125 C 93.738281 175.113281 93.03125 174.839844 93.03125 174.839844 C 96.566406 170.242188 94.558594 167.0625 93.988281 165.257813 C 94.132813 163.828125 94.480469 162.773438 94.910156 161.9375 C 95.320313 161.148438 95.808594 160.550781 96.292969 160.035156 C 94.457031 160.933594 92.375 162.488281 91.53125 165.742188 "></path>
<path style="stroke:none;fill-rule:nonzero;fill:rgb(0%,25.097656%,59.606934%);fill-opacity:1" d="M 92.183594 179.671875 C 92.183594 179.671875 91.113281 182.589844 92.464844 185.394531 C 94.28125 189.171875 99 190.246094 99 190.246094 C 99 190.246094 92.652344 188.074219 95.402344 183.449219 C 95.402344 183.449219 92.53125 182.867188 92.183594 179.671875 "></path>
<path style="stroke:none;fill-rule:nonzero;fill:rgb(0%,25.097656%,59.606934%);fill-opacity:1" d="M 103.488281 174.46875 C 103.488281 174.46875 100.609375 172.191406 99.695313 171.316406 C 99.167969 170.804688 99.121094 168.796875 99.179688 167.066406 C 99.226563 165.601563 99.355469 164.34375 99.355469 164.34375 C 99.355469 164.34375 99.019531 165.476563 98.707031 166.867188 C 98.25 168.78125 97.820313 171.199219 98.285156 171.910156 C 99.308594 173.507813 103.488281 174.46875 103.488281 174.46875 "></path>
<path style="stroke:none;fill-rule:nonzero;fill:rgb(0%,25.097656%,59.606934%);fill-opacity:1" d="M 110.179688 164.617188 C 108.269531 165.714844 106.105469 165.703125 104.65625 165.519531 C 103.675781 165.402344 102.890625 166.046875 102.699219 166.824219 C 102.601563 167.214844 102.480469 167.613281 102.351563 168.019531 C 102.117188 168.75 101.828125 169.480469 101.464844 170.097656 C 102.199219 172.4375 104.558594 174.046875 104.558594 174.046875 C 103.667969 172.714844 103.007813 170.339844 103.007813 170.339844 L 103.300781 169.78125 L 104.039063 168.449219 C 104.039063 168.449219 104.65625 167.0625 105.34375 166.984375 C 109.1875 166.539063 110.179688 164.617188 110.179688 164.617188 "></path>
<path style="stroke:none;fill-rule:nonzero;fill:rgb(0%,25.097656%,59.606934%);fill-opacity:1" d="M 84.160156 179.570313 C 83.949219 172.890625 89.976563 167.597656 90.539063 167.1875 C 80.835938 171.09375 80.835938 182.027344 80.835938 182.027344 C 85.488281 187.363281 82.132813 193.695313 82.132813 193.695313 C 88.289063 187.972656 84.238281 181.671875 84.160156 179.570313 "></path>
<path style="stroke:none;fill-rule:nonzero;fill:rgb(0%,25.097656%,59.606934%);fill-opacity:1" d="M 111.503906 187.324219 C 111.503906 187.324219 117.195313 188.207031 115.914063 181.621094 C 115.914063 181.621094 115.050781 185.941406 111.503906 187.324219 "></path>
<path style="stroke:none;fill-rule:nonzero;fill:rgb(0%,25.097656%,59.606934%);fill-opacity:1" d="M 116.898438 168.789063 C 116.898438 168.789063 115.261719 172.78125 113.179688 173.445313 C 112.984375 173.386719 112.894531 172.203125 113.003906 170.125 C 113.003906 170.125 109.265625 175.066406 112.828125 181.074219 C 112.828125 181.074219 111.820313 179.085938 113.101563 176.816406 C 113.90625 175.394531 115.605469 174.640625 116.515625 172.167969 C 116.777344 171.445313 116.898438 170.648438 116.898438 168.789063 "></path>
<path style="stroke:none;fill-rule:nonzero;fill:rgb(0%,25.097656%,59.606934%);fill-opacity:1" d="M 106.660156 170.210938 C 108.171875 167.082031 112.445313 168.4375 113.941406 164.882813 C 113.941406 164.882813 113.925781 168.101563 111.289063 169.167969 C 107.371094 170.75 107.015625 173.945313 107.015625 173.945313 C 107.015625 173.945313 105.941406 171.699219 106.660156 170.210938 "></path>
<path style="stroke:none;fill-rule:nonzero;fill:rgb(100%,100%,100%);fill-opacity:1" d="M 86.710938 158.984375 C 86.792969 158.882813 85.078125 160.414063 84.214844 161.511719 C 74.417969 153.535156 78.503906 147.398438 79.039063 145.433594 C 86.710938 140.941406 94.957031 154.203125 94.957031 154.203125 C 90.855469 155.382813 86.710938 158.984375 86.710938 158.984375 "></path>
<path style="stroke:none;fill-rule:nonzero;fill:rgb(0%,25.097656%,59.606934%);fill-opacity:1" d="M 86.339844 159.320313 C 88.863281 157.183594 91.402344 155.550781 94.957031 154.203125 C 93.28125 148.753906 84.023438 141.933594 79.039063 145.433594 C 86.214844 144.539063 87.664063 157.003906 86.339844 159.320313 "></path>
<path style="stroke:none;fill-rule:nonzero;fill:rgb(100%,100%,100%);fill-opacity:1" d="M 151.65625 158.984375 C 151.582031 158.882813 153.289063 160.414063 154.160156 161.511719 C 163.960938 153.535156 159.875 147.398438 159.34375 145.433594 C 151.660156 140.941406 143.414063 154.203125 143.414063 154.203125 C 147.515625 155.382813 151.65625 158.984375 151.65625 158.984375 "></path>
<path style="stroke:none;fill-rule:nonzero;fill:rgb(0%,25.097656%,59.606934%);fill-opacity:1" d="M 152.039063 159.320313 C 149.507813 157.183594 146.96875 155.550781 143.414063 154.203125 C 145.09375 148.753906 154.351563 141.933594 159.34375 145.433594 C 152.152344 144.539063 150.714844 157.003906 152.039063 159.320313 "></path>
<path style="stroke:none;fill-rule:nonzero;fill:rgb(95.298767%,59.199524%,0%);fill-opacity:1" d="M 146.503906 209.617188 C 146.511719 218.636719 137.632813 220.183594 133.015625 220.53125 C 133.847656 218.378906 136.15625 214.386719 136.742188 212.636719 C 138.992188 211.179688 142.796875 209.195313 146.503906 209.617188 "></path>
<path style="stroke:none;fill-rule:nonzero;fill:rgb(100%,100%,100%);fill-opacity:1" d="M 131.683594 179.527344 C 131.566406 180.390625 132.1875 181.90625 134.007813 181.570313 C 135.898438 181.226563 136.105469 179.507813 135.882813 178.476563 C 135.785156 178.070313 135.621094 177.839844 135.488281 177.703125 C 136.09375 177.496094 136.761719 177.273438 137.523438 177.058594 C 137.523438 177.058594 138.425781 181.113281 135.140625 182.480469 C 131.628906 183.953125 130.609375 180.578125 130.609375 180.578125 C 130.609375 180.578125 130.789063 180.164063 131.683594 179.527344 "></path>
<path style="stroke:none;fill-rule:nonzero;fill:rgb(0%,25.097656%,59.606934%);fill-opacity:1" d="M 135.140625 182.480469 C 131.628906 183.953125 130.609375 180.578125 130.609375 180.578125 C 130.609375 180.578125 130.785156 180.164063 131.683594 179.527344 C 131.566406 180.390625 132.1875 181.90625 134.007813 181.570313 C 135.898438 181.226563 136.105469 179.507813 135.882813 178.476563 C 135.785156 178.070313 135.617188 177.835938 135.488281 177.703125 C 136.09375 177.496094 136.761719 177.273438 137.523438 177.058594 C 137.523438 177.058594 138.425781 181.113281 135.140625 182.480469 M 142.117188 160.035156 C 142.597656 160.550781 143.09375 161.148438 143.496094 161.9375 C 143.9375 162.773438 144.28125 163.832031 144.421875 165.257813 C 143.847656 167.0625 141.847656 170.242188 145.378906 174.839844 C 145.378906 174.839844 144.664063 175.113281 143.789063 175.457031 C 143.742188 175.472656 142.261719 175.929688 141.285156 176.078125 C 140.183594 176.25 140.488281 175.519531 140.789063 175.175781 C 141.6875 174.117188 142.859375 173.675781 142.859375 173.675781 C 142.859375 173.675781 138.464844 173.675781 132.679688 176.691406 C 129.894531 178.148438 128.964844 180.121094 128.6875 181.777344 C 128.527344 182.792969 128.609375 183.679688 128.675781 184.242188 C 129.101563 188.023438 132.429688 192.09375 132.429688 192.09375 C 132.429688 192.09375 131.628906 189.871094 132.042969 187.769531 C 132.3125 186.4375 133.105469 185.222656 134.894531 184.523438 C 140.089844 182.507813 138.261719 178.296875 140.398438 178.363281 C 140.910156 178.378906 141.761719 178.730469 141.433594 180.292969 C 141.066406 182.082031 140.1875 184.082031 137.511719 185.359375 L 137.507813 185.359375 C 137.507813 185.359375 141.105469 184.90625 143.09375 180.433594 C 144.824219 176.570313 149.890625 177.058594 149.890625 177.058594 C 149.890625 177.058594 144.21875 171.605469 146.882813 165.742188 C 146.039063 162.488281 143.953125 160.933594 142.117188 160.035156 "></path>
<path style="stroke:none;fill-rule:nonzero;fill:rgb(0%,25.097656%,59.606934%);fill-opacity:1" d="M 146.222656 179.671875 C 146.222656 179.671875 147.296875 182.589844 145.945313 185.394531 C 144.128906 189.171875 139.414063 190.246094 139.414063 190.246094 C 139.414063 190.246094 145.757813 188.074219 143.011719 183.449219 C 143.011719 183.449219 145.886719 182.867188 146.222656 179.671875 "></path>
<path style="stroke:none;fill-rule:nonzero;fill:rgb(0%,25.097656%,59.606934%);fill-opacity:1" d="M 134.925781 174.46875 C 134.925781 174.46875 137.808594 172.191406 138.722656 171.316406 C 139.242188 170.804688 139.296875 168.796875 139.234375 167.066406 C 139.1875 165.601563 139.058594 164.34375 139.058594 164.34375 C 139.058594 164.34375 139.386719 165.476563 139.710938 166.867188 C 140.15625 168.78125 140.589844 171.199219 140.128906 171.910156 C 139.09375 173.507813 134.925781 174.46875 134.925781 174.46875 "></path>
<path style="stroke:none;fill-rule:nonzero;fill:rgb(0%,25.097656%,59.606934%);fill-opacity:1" d="M 128.242188 164.617188 C 130.140625 165.714844 132.308594 165.703125 133.75 165.519531 C 134.738281 165.402344 135.527344 166.046875 135.710938 166.824219 C 135.804688 167.214844 135.933594 167.613281 136.054688 168.019531 C 136.296875 168.75 136.582031 169.480469 136.945313 170.097656 C 136.210938 172.4375 133.851563 174.046875 133.851563 174.046875 C 134.746094 172.714844 135.410156 170.339844 135.410156 170.339844 L 135.113281 169.78125 L 134.371094 168.449219 C 134.371094 168.449219 133.75 167.0625 133.066406 166.984375 C 129.222656 166.539063 128.242188 164.617188 128.242188 164.617188 "></path>
<path style="stroke:none;fill-rule:nonzero;fill:rgb(0%,25.097656%,59.606934%);fill-opacity:1" d="M 154.246094 179.570313 C 154.464844 172.890625 148.441406 167.597656 147.878906 167.1875 C 157.578125 171.09375 157.578125 182.027344 157.578125 182.027344 C 152.925781 187.363281 156.277344 193.695313 156.277344 193.695313 C 150.125 187.972656 154.171875 181.671875 154.246094 179.570313 "></path>
<path style="stroke:none;fill-rule:nonzero;fill:rgb(0%,25.097656%,59.606934%);fill-opacity:1" d="M 126.914063 187.324219 C 126.914063 187.324219 121.21875 188.207031 122.5 181.621094 C 122.5 181.621094 123.359375 185.941406 126.914063 187.324219 "></path>
<path style="stroke:none;fill-rule:nonzero;fill:rgb(0%,25.097656%,59.606934%);fill-opacity:1" d="M 121.515625 168.789063 C 121.515625 168.789063 123.152344 172.78125 125.238281 173.445313 C 125.429688 173.386719 125.515625 172.203125 125.40625 170.125 C 125.40625 170.125 129.144531 175.066406 125.578125 181.074219 C 125.578125 181.074219 126.589844 179.085938 125.308594 176.816406 C 124.503906 175.394531 122.800781 174.640625 121.898438 172.167969 C 121.632813 171.445313 121.515625 170.648438 121.515625 168.789063 "></path>
<path style="stroke:none;fill-rule:nonzero;fill:rgb(0%,25.097656%,59.606934%);fill-opacity:1" d="M 131.757813 170.210938 C 130.238281 167.082031 125.964844 168.4375 124.472656 164.882813 C 124.472656 164.882813 124.476563 168.101563 127.128906 169.167969 C 131.035156 170.75 131.390625 173.945313 131.390625 173.945313 C 131.390625 173.945313 132.480469 171.699219 131.757813 170.210938 "></path>
<path style="stroke:none;fill-rule:nonzero;fill:rgb(0%,25.097656%,59.606934%);fill-opacity:1" d="M 126.554688 155.386719 C 122.453125 155.976563 119.210938 153.535156 119.210938 153.535156 C 119.210938 153.535156 116.089844 155.929688 111.855469 155.386719 C 103.519531 154.328125 98.015625 159.027344 98.015625 159.027344 C 101.890625 157.097656 105.671875 157.59375 107.828125 158.019531 C 111.507813 158.738281 115.695313 157.0625 115.636719 158 C 115.578125 158.953125 113.101563 160.710938 113.101563 160.710938 C 115 159.96875 117.519531 159.941406 119.210938 159.941406 C 120.882813 159.941406 123.410156 159.96875 125.308594 160.710938 C 125.308594 160.710938 122.832031 158.953125 122.773438 158 C 122.714844 157.0625 126.90625 158.738281 130.585938 158.019531 C 132.738281 157.59375 136.511719 157.097656 140.398438 159.027344 C 140.398438 159.027344 134.871094 154.203125 126.554688 155.386719 "></path>
<path style="stroke:none;fill-rule:nonzero;fill:rgb(0%,25.097656%,59.606934%);fill-opacity:1" d="M 129.082031 224.320313 C 129.082031 224.320313 129.949219 220.285156 127.019531 216.285156 C 127.019531 216.285156 129.675781 216.613281 132.367188 215.261719 C 131.773438 218.621094 130.625 222.070313 129.082031 224.320313 M 127.003906 231.710938 C 124.320313 230.921875 120.578125 230.675781 119.210938 230.675781 C 117.824219 230.675781 114.089844 230.921875 111.417969 231.710938 C 111.417969 231.710938 110.269531 228.699219 110.746094 225.152344 C 110.746094 225.152344 111.328125 227.867188 112.515625 229.535156 L 114.054688 228.90625 L 115.441406 229.175781 L 117.296875 228.636719 L 119.195313 229.15625 L 121.121094 228.636719 L 122.964844 229.175781 L 122.972656 229.175781 L 124.359375 228.90625 L 125.890625 229.535156 C 127.078125 227.867188 127.667969 225.152344 127.667969 225.152344 C 128.148438 228.699219 127.003906 231.710938 127.003906 231.710938 M 106.042969 215.261719 C 108.734375 216.613281 111.394531 216.285156 111.394531 216.285156 C 108.464844 220.285156 109.332031 224.320313 109.332031 224.320313 C 107.789063 222.070313 106.644531 218.621094 106.042969 215.261719 M 156.269531 198.164063 C 156.269531 198.164063 150.640625 198.113281 150.203125 193.246094 C 150.203125 193.246094 152.195313 189.730469 151.257813 185.632813 C 150.339844 181.683594 148.792969 180.433594 148.792969 180.433594 C 148.792969 180.433594 153.179688 188.878906 143.925781 195.160156 C 143.882813 195.191406 143.84375 195.214844 143.804688 195.242188 C 143.804688 195.242188 148.097656 196.011719 147.734375 200.066406 C 147.433594 203.5 143.757813 206.296875 139.835938 208.445313 C 139.910156 208.214844 139.980469 207.984375 140.039063 207.75 C 140.347656 206.421875 140.460938 204.800781 140.210938 203.117188 C 142.257813 200.128906 144.835938 200.832031 144.835938 200.832031 C 142.605469 199.289063 140.5 200.046875 139.554688 200.539063 C 138.789063 198.445313 137.199219 196.265625 134.878906 194.769531 C 134.878906 194.769531 137.554688 197.515625 138.242188 201.382813 C 137.851563 202.507813 137.230469 203.433594 136.484375 204.195313 C 133.589844 207.121094 128.910156 207.632813 128.910156 207.632813 C 130.40625 207.875 131.773438 207.921875 133.007813 207.820313 C 135.078125 207.660156 136.753906 207.144531 137.894531 206.671875 C 137.886719 206.691406 136.828125 210.488281 131.421875 212.988281 C 126.804688 215.128906 121.773438 214.109375 120.589844 212.675781 C 120.175781 212.1875 120.007813 209.808594 120.316406 209.214844 C 120.554688 208.753906 120.964844 208.039063 121.816406 207.300781 C 123.816406 205.578125 126.257813 204.316406 127.5625 203.589844 C 130.066406 202.199219 130.4375 199.324219 128.101563 197.820313 C 128.101563 197.820313 128.285156 199.730469 125.640625 199.675781 C 125.328125 199.667969 121.589844 198.703125 119.195313 198.703125 C 116.804688 198.703125 113.078125 199.667969 112.765625 199.675781 C 110.125 199.730469 110.3125 197.820313 110.3125 197.820313 C 107.972656 199.324219 108.34375 202.199219 110.851563 203.589844 C 112.15625 204.316406 114.589844 205.578125 116.589844 207.300781 C 117.449219 208.039063 117.855469 208.753906 118.097656 209.214844 C 118.402344 209.808594 118.234375 212.1875 117.824219 212.675781 C 116.640625 214.109375 111.609375 215.128906 106.996094 212.988281 C 101.585938 210.488281 100.527344 206.691406 100.519531 206.671875 C 101.652344 207.144531 103.328125 207.660156 105.40625 207.820313 C 106.644531 207.921875 108.007813 207.875 109.5 207.632813 C 109.5 207.632813 104.824219 207.121094 101.933594 204.195313 C 101.179688 203.433594 100.566406 202.507813 100.167969 201.382813 C 100.859375 197.515625 103.535156 194.769531 103.535156 194.769531 C 101.214844 196.265625 99.628906 198.445313 98.851563 200.539063 C 97.914063 200.046875 95.800781 199.289063 93.582031 200.832031 C 93.582031 200.832031 96.160156 200.128906 98.203125 203.117188 C 97.957031 204.800781 98.058594 206.421875 98.375 207.75 C 98.433594 207.984375 98.5 208.214844 98.582031 208.445313 C 94.652344 206.296875 90.980469 203.5 90.675781 200.066406 C 90.308594 196.011719 94.605469 195.242188 94.605469 195.242188 C 94.570313 195.214844 94.53125 195.191406 94.484375 195.160156 C 85.234375 188.878906 89.625 180.433594 89.625 180.433594 C 89.625 180.433594 88.070313 181.683594 87.160156 185.632813 C 86.214844 189.730469 88.210938 193.246094 88.210938 193.246094 C 87.777344 198.113281 82.144531 198.164063 82.144531 198.164063 C 84.871094 202.378906 89.273438 202.460938 89.273438 202.460938 C 85.675781 204.15625 85.128906 207.300781 85.128906 207.300781 C 88.234375 205.3125 92.289063 207.660156 92.289063 207.660156 C 90.261719 209.316406 89.894531 212.125 89.894531 212.125 C 90.667969 211.789063 91.457031 211.589844 92.246094 211.5 C 95.960938 211.078125 99.773438 213.050781 102.019531 214.523438 C 102.597656 216.265625 106.726563 226.300781 110.953125 233.257813 C 110.953125 233.257813 114.355469 232.199219 119.210938 232.199219 C 124.058594 232.199219 127.46875 233.257813 127.46875 233.257813 C 131.683594 226.300781 135.820313 216.265625 136.394531 214.523438 C 138.644531 213.050781 142.457031 211.078125 146.152344 211.5 C 146.953125 211.589844 147.742188 211.789063 148.515625 212.125 C 148.515625 212.125 148.15625 209.316406 146.113281 207.660156 C 146.113281 207.660156 150.175781 205.3125 153.285156 207.300781 C 153.285156 207.300781 152.730469 204.15625 149.136719 202.460938 C 149.136719 202.460938 153.539063 202.378906 156.269531 198.164063 "></path>
<path style="stroke:none;fill-rule:nonzero;fill:rgb(0%,25.097656%,59.606934%);fill-opacity:1" d="M 119.730469 148.34375 C 119.730469 148.34375 125.613281 147.191406 132.410156 150.066406 C 132.410156 150.066406 127.609375 145.085938 119.207031 146.140625 C 110.804688 145.085938 105.996094 150.066406 105.996094 150.066406 C 112.800781 147.191406 118.679688 148.34375 118.679688 148.34375 C 116.214844 151.308594 110.234375 147.726563 103.585938 154.351563 C 109.214844 151.160156 115.519531 154.511719 119.207031 151.964844 C 122.894531 154.511719 129.195313 151.160156 134.828125 154.351563 C 128.175781 147.726563 122.195313 151.308594 119.730469 148.34375 "></path>
<path style="stroke:none;fill-rule:nonzero;fill:rgb(0%,25.097656%,59.606934%);fill-opacity:1" d="M 163.824219 192.554688 C 161.300781 189.570313 158.15625 189.203125 158.15625 189.203125 C 161.878906 207.425781 154.542969 215.859375 154.542969 215.859375 C 153.949219 212.515625 151.855469 210.585938 151.855469 210.585938 C 149 221.410156 142.355469 224.191406 138.875 225.828125 C 132.359375 228.902344 130.574219 233.875 128.761719 236.925781 C 128.136719 237.980469 127.871094 238.160156 127.136719 238.375 C 126.175781 238.667969 122.6875 239.160156 119.210938 239.160156 C 115.71875 239.160156 112.234375 238.667969 111.257813 238.375 C 110.523438 238.160156 110.269531 237.980469 109.644531 236.925781 C 107.828125 233.875 106.042969 228.902344 99.519531 225.828125 C 96.042969 224.191406 89.398438 221.410156 86.546875 210.585938 C 86.546875 210.585938 84.453125 212.515625 83.859375 215.859375 C 83.859375 215.859375 76.523438 207.425781 80.246094 189.203125 C 80.246094 189.203125 77.109375 189.570313 74.574219 192.554688 C 74.574219 192.554688 74.300781 185.632813 78.746094 179.019531 C 78.746094 179.019531 77.960938 177.285156 75.707031 176.417969 C 75.707031 176.417969 77.535156 174.25 81.070313 173.386719 C 81.070313 173.386719 80.171875 170.980469 78.40625 170.078125 C 78.40625 170.078125 83.960938 165.703125 80.179688 161.960938 C 77.914063 159.722656 73.582031 155.371094 74.515625 150.003906 C 75.34375 145.191406 76.640625 142.058594 76.640625 142.058594 C 83.164063 139.914063 89.527344 143.417969 92.335938 145.148438 C 96.289063 147.578125 98.796875 151.734375 98.796875 151.734375 C 98.796875 151.734375 105.109375 144.265625 119.289063 144.226563 C 133.300781 144.265625 139.605469 151.734375 139.605469 151.734375 C 139.605469 151.734375 142.117188 147.578125 146.066406 145.148438 C 148.871094 143.417969 155.234375 139.914063 161.765625 142.058594 C 161.765625 142.058594 163.058594 145.191406 163.886719 150.003906 C 164.816406 155.371094 160.488281 159.722656 158.222656 161.960938 C 154.445313 165.703125 160 170.078125 160 170.078125 C 158.230469 170.980469 157.335938 173.386719 157.335938 173.386719 C 160.863281 174.25 162.699219 176.417969 162.699219 176.417969 C 160.4375 177.285156 159.652344 179.019531 159.652344 179.019531 C 164.097656 185.632813 163.824219 192.554688 163.824219 192.554688 M 166.3125 178.421875 C 165.332031 174.710938 160.652344 172.695313 160.652344 172.695313 C 161.863281 170.511719 164.742188 170.109375 164.742188 170.109375 C 158.429688 167.035156 159.242188 164.273438 160.195313 163.382813 C 165.046875 158.859375 167.980469 154.890625 166.222656 148.140625 C 164.890625 143.027344 164.613281 140.863281 164.613281 140.863281 C 160.367188 138.621094 155.203125 138.578125 149.886719 140.542969 C 142.605469 143.21875 139.378906 147.738281 139.378906 147.738281 C 134.554688 143.632813 125.277344 141.382813 119.234375 142.261719 C 113.011719 141.382813 103.851563 143.632813 99.019531 147.738281 C 99.019531 147.738281 95.792969 143.21875 88.523438 140.542969 C 83.195313 138.578125 78.035156 138.621094 73.78125 140.863281 C 73.78125 140.863281 73.503906 143.027344 72.179688 148.140625 C 70.417969 154.890625 73.359375 158.859375 78.207031 163.382813 C 79.15625 164.273438 79.96875 167.035156 73.660156 170.109375 C 73.660156 170.109375 76.535156 170.511719 77.746094 172.695313 C 77.746094 172.695313 73.058594 174.710938 72.09375 178.421875 C 72.09375 178.421875 74.769531 177.136719 76.589844 179.222656 C 76.589844 179.222656 70.101563 187.347656 72.292969 200.128906 C 72.292969 200.128906 73.039063 198.5625 76.980469 194.59375 C 76.980469 194.59375 73.148438 212.175781 86.085938 223.011719 C 86.085938 223.011719 85.242188 219.242188 86.171875 216.375 C 86.171875 216.375 88.523438 223.84375 97.542969 227.617188 C 102.859375 229.84375 105.300781 234.097656 107.09375 238.238281 C 108.039063 240.433594 108.683594 241.433594 111.257813 241.402344 C 113.066406 241.378906 119.242188 241.523438 119.253906 241.523438 C 119.265625 241.523438 125.328125 241.378906 127.136719 241.402344 C 129.722656 241.433594 130.363281 240.433594 131.316406 238.238281 C 133.105469 234.097656 135.542969 229.84375 140.863281 227.617188 C 149.878906 223.84375 152.226563 216.375 152.226563 216.375 C 153.15625 219.242188 152.3125 223.011719 152.3125 223.011719 C 165.246094 212.175781 161.425781 194.59375 161.425781 194.59375 C 165.355469 198.5625 166.105469 200.128906 166.105469 200.128906 C 168.300781 187.347656 161.816406 179.222656 161.816406 179.222656 C 163.636719 177.136719 166.3125 178.421875 166.3125 178.421875 "></path>
<path style="stroke:none;fill-rule:nonzero;fill:rgb(0%,25.097656%,59.606934%);fill-opacity:1" d="M 91.835938 73.191406 L 91.835938 84.746094 L 90.660156 84.746094 L 90.664063 73.148438 L 91.25 71.359375 Z M 104.96875 84.746094 L 104.976563 73.148438 L 105.847656 70.484375 L 84 70.484375 L 84.878906 73.1875 L 84.878906 88.117188 L 87.207031 90.445313 L 95.285156 90.445313 L 97.621094 88.117188 L 97.625 73.148438 L 98.40625 70.746094 L 99.191406 73.1875 L 99.179688 87.753906 L 98.242188 90.445313 L 111.691406 90.445313 L 111.691406 83.792969 L 108.609375 84.746094 "></path>
<path style="stroke:none;fill-rule:nonzero;fill:rgb(0%,25.097656%,59.606934%);fill-opacity:1" d="M 124.308594 79.929688 L 122.902344 78.585938 L 125.1875 78.585938 L 124.324219 75.886719 L 124.324219 72.816406 L 121.980469 70.484375 L 114.578125 70.484375 L 112.230469 72.816406 L 112.230469 81.027344 L 113.621094 82.402344 L 111.351563 82.402344 L 112.222656 85.109375 L 112.222656 88.117188 L 114.558594 90.445313 L 121.964844 90.445313 L 124.304688 88.117188 "></path>
<path style="stroke:none;fill-rule:nonzero;fill:rgb(0%,25.097656%,59.606934%);fill-opacity:1" d="M 148.433594 90.445313 L 154.65625 90.445313 L 153.753906 87.730469 L 153.761719 73.148438 L 154.636719 70.484375 L 147.097656 70.484375 L 147.976563 73.1875 L 147.976563 76.007813 L 145.613281 70.484375 L 139.421875 70.484375 L 140.289063 73.191406 L 140.285156 87.78125 L 139.757813 89.390625 L 138.761719 87.589844 L 135.035156 72.753906 L 135.820313 70.433594 L 127.878906 70.433594 L 128.660156 72.820313 L 124.921875 87.589844 L 123.304688 90.5 L 131.308594 90.5 L 130.664063 88.476563 L 131.207031 86.511719 L 132.492188 86.523438 L 133.007813 88.523438 L 132.335938 90.5 L 139.816406 90.5 L 139.871094 90.597656 L 139.910156 90.5 L 140.371094 90.445313 L 146.9375 90.445313 L 146.066406 87.753906 L 146.066406 85.019531 "></path>
<path style="stroke:none;fill-rule:nonzero;fill:rgb(100%,100%,100%);fill-opacity:1" d="M 103.621094 86.09375 L 108.8125 86.09375 L 110.070313 85.714844 L 110.070313 89.09375 L 100.144531 89.09375 L 100.535156 87.984375 L 100.542969 72.972656 L 100.175781 71.847656 L 103.984375 71.847656 L 103.621094 72.933594 L 103.621094 86.09375 "></path>
<path style="stroke:none;fill-rule:nonzero;fill:rgb(100%,100%,100%);fill-opacity:1" d="M 133.148438 82.484375 L 131.839844 76.539063 L 130.507813 82.484375 Z M 130.027344 85.058594 L 129.253906 88.496094 L 129.457031 89.148438 L 125.597656 89.148438 L 126.183594 88.085938 L 130.058594 72.777344 L 129.734375 71.789063 L 133.929688 71.789063 L 133.613281 72.6875 L 137.496094 88.085938 L 138.082031 89.148438 L 134.222656 89.148438 L 134.425781 88.578125 L 133.628906 85.058594 "></path>
<path style="stroke:none;fill-rule:nonzero;fill:rgb(100%,100%,100%);fill-opacity:1" d="M 116.640625 86.09375 L 119.800781 86.09375 L 119.800781 81.996094 L 115.132813 81.996094 L 113.589844 80.460938 L 113.589844 73.371094 L 115.132813 71.847656 L 121.421875 71.847656 L 122.964844 73.371094 L 122.964844 76.09375 L 123.328125 77.226563 L 119.527344 77.226563 L 119.878906 76.132813 L 119.886719 74.984375 L 119.894531 74.984375 L 116.667969 74.984375 L 116.667969 78.996094 L 121.375 78.996094 L 122.957031 80.507813 L 122.953125 87.554688 L 121.410156 89.09375 L 115.113281 89.09375 L 113.570313 87.554688 L 113.570313 84.890625 L 113.203125 83.761719 L 117.011719 83.761719 L 116.65625 84.855469 L 116.65625 86.09375 "></path>
<path style="stroke:none;fill-rule:nonzero;fill:rgb(100%,100%,100%);fill-opacity:1" d="M 93.195313 86.105469 L 93.195313 72.972656 L 92.824219 71.847656 L 96.628906 71.847656 L 96.273438 72.925781 L 96.273438 87.554688 L 94.726563 89.09375 L 87.769531 89.09375 L 86.226563 87.554688 L 86.226563 72.972656 L 85.855469 71.847656 L 89.667969 71.847656 L 89.308594 72.933594 L 89.304688 86.105469 "></path>
<path style="stroke:none;fill-rule:nonzero;fill:rgb(100%,100%,100%);fill-opacity:1" d="M 149.320313 89.09375 L 144.707031 78.492188 L 144.71875 87.960938 L 145.078125 89.09375 L 141.277344 89.09375 L 141.632813 88 L 141.640625 72.984375 L 141.277344 71.847656 L 144.722656 71.847656 L 149.332031 82.609375 L 149.328125 72.972656 L 148.960938 71.847656 L 152.761719 71.847656 L 152.40625 72.933594 L 152.394531 87.949219 L 152.777344 89.09375 "></path>
<path style="stroke:none;fill-rule:nonzero;fill:rgb(0%,25.097656%,59.606934%);fill-opacity:1" d="M 104.65625 250.765625 L 104.65625 260.347656 L 104.386719 261.183594 L 107.152344 261.183594 L 106.890625 260.351563 L 106.890625 247.667969 L 104.300781 247.667969 L 103.496094 250.457031 L 104.363281 250.457031 "></path>
<path style="stroke:none;fill-rule:nonzero;fill:rgb(0%,25.097656%,59.606934%);fill-opacity:1" d="M 121.589844 253.210938 L 121.335938 252.957031 L 121.335938 250.1875 L 121.625 249.898438 L 123.347656 249.898438 L 123.640625 250.179688 L 123.640625 252.949219 L 123.371094 253.210938 Z M 121.335938 258.671875 L 121.335938 255.761719 L 121.601563 255.492188 L 123.371094 255.492188 L 123.640625 255.742188 L 123.640625 258.664063 L 123.347656 258.957031 L 121.625 258.957031 Z M 120.222656 247.667969 L 119.105469 248.804688 L 119.105469 253.210938 L 120.222656 254.351563 L 119.105469 255.492188 L 119.105469 260.046875 L 120.222656 261.183594 L 124.753906 261.183594 L 125.867188 260.046875 L 125.867188 255.492188 L 124.753906 254.351563 L 125.867188 253.210938 L 125.867188 248.804688 L 124.753906 247.667969 "></path>
<path style="stroke:none;fill-rule:nonzero;fill:rgb(0%,25.097656%,59.606934%);fill-opacity:1" d="M 136.828125 248.214844 L 134.875 246.226563 L 129.125 246.226563 L 127.246094 248.148438 L 125.359375 246.226563 L 119.613281 246.226563 L 117.808594 248.070313 L 115.996094 246.226563 L 110.253906 246.226563 L 108.328125 248.1875 L 108.328125 246.226563 L 103.21875 246.226563 L 101.578125 251.902344 L 103.21875 251.902344 L 103.21875 260.125 L 102.398438 262.625 L 109.117188 262.625 L 108.585938 260.945313 L 110.238281 262.625 L 115.984375 262.625 L 117.796875 260.777344 L 119.621094 262.625 L 125.359375 262.625 L 127.246094 260.695313 L 129.125 262.625 L 134.875 262.625 L 136.828125 260.636719 L 136.828125 254.945313 L 136.285156 254.390625 L 136.828125 253.851563 "></path>
<path style="stroke:none;fill-rule:nonzero;fill:rgb(100%,100%,100%);fill-opacity:1" d="M 104.65625 250.457031 L 104.65625 260.347656 L 104.386719 261.183594 L 107.152344 261.183594 L 106.890625 260.351563 L 106.890625 247.667969 L 104.300781 247.667969 L 103.496094 250.457031 "></path>
<path style="stroke:none;fill-rule:nonzero;fill:rgb(100%,100%,100%);fill-opacity:1" d="M 114.277344 253.316406 L 111.960938 253.316406 L 111.960938 249.902344 L 114.277344 249.902344 Z M 115.390625 247.667969 L 110.851563 247.667969 L 109.742188 248.804688 L 109.742188 254.40625 L 110.851563 255.546875 L 114.265625 255.546875 L 114.265625 258.957031 L 111.953125 258.957031 L 111.953125 257.761719 L 112.222656 256.933594 L 109.460938 256.933594 L 109.726563 257.757813 L 109.726563 260.046875 L 110.847656 261.183594 L 115.382813 261.183594 L 116.496094 260.046875 L 116.496094 258.96875 L 116.5 258.96875 L 116.5 254.882813 L 116.511719 254.882813 L 116.511719 248.804688 "></path>
<path style="stroke:none;fill-rule:nonzero;fill:rgb(100%,100%,100%);fill-opacity:1" d="M 123.636719 253.210938 L 121.335938 253.210938 L 121.335938 249.898438 L 123.636719 249.898438 Z M 123.636719 258.957031 L 121.335938 258.957031 L 121.335938 255.492188 L 123.636719 255.492188 Z M 124.753906 247.667969 L 120.222656 247.667969 L 119.105469 248.804688 L 119.105469 253.210938 L 120.222656 254.351563 L 119.105469 255.492188 L 119.105469 260.046875 L 120.222656 261.183594 L 124.753906 261.183594 L 125.867188 260.046875 L 125.867188 255.492188 L 124.753906 254.351563 L 125.867188 253.210938 L 125.867188 248.804688 "></path>
<path style="stroke:none;fill-rule:nonzero;fill:rgb(100%,100%,100%);fill-opacity:1" d="M 133.148438 258.957031 L 130.847656 258.957031 L 130.84375 257.761719 L 131.113281 256.933594 L 128.351563 256.933594 L 128.613281 257.757813 L 128.613281 260.046875 L 129.734375 261.183594 L 134.265625 261.183594 L 135.375 260.046875 L 135.375 255.535156 L 134.265625 254.390625 L 135.375 253.253906 L 135.375 248.804688 L 134.265625 247.667969 L 129.734375 247.667969 L 128.613281 248.804688 L 128.613281 251.089844 L 128.351563 251.921875 L 131.113281 251.921875 L 130.84375 251.085938 L 130.84375 249.894531 L 133.148438 249.898438 L 133.148438 253.300781 L 131.648438 253.300781 L 130.84375 253.019531 L 130.84375 255.847656 L 131.679688 255.582031 L 133.148438 255.582031 "></path>
</g>
</svg>
